<svg width="230" height="41" viewBox="0 0 230 41" fill="none" xmlns="http://www.w3.org/2000/svg">
<path d="M76.6175 11.5172C76.6175 11.9052 76.163 12.1085 75.871 11.8498C75.4202 11.4507 74.925 11.0996 74.3781 10.7966C73.0921 10.0908 71.625 9.7323 69.9658 9.7323C68.0035 9.7323 66.2297 10.2386 64.648 11.2474C63.0627 12.26 61.8099 13.6162 60.8898 15.3198C59.9696 17.0271 59.5077 18.9524 59.5077 21.092C59.5077 23.2317 59.9659 25.1127 60.8898 26.82C61.8099 28.5272 63.0627 29.8761 64.648 30.8702C66.2297 31.8642 68.0035 32.3668 69.9658 32.3668C71.625 32.3668 73.1032 32.012 74.4003 31.3025C74.925 31.018 75.398 30.6891 75.8304 30.3158C76.1408 30.0461 76.6175 30.2604 76.6175 30.6706C76.6175 31.3579 77.1755 31.916 77.8629 31.916H80.3573C81.0447 31.916 81.6027 31.3579 81.6027 30.6706V11.5098C81.6027 10.7744 81.004 10.1794 80.2723 10.1794H77.9553C77.2199 10.1794 76.6249 10.7781 76.6249 11.5098L76.6175 11.5172ZM75.2354 25.8037C74.1009 27.0417 72.6154 27.6625 70.7751 27.6625C69.5666 27.6625 68.5061 27.3854 67.5822 26.8237C66.6583 26.2656 65.934 25.4896 65.4093 24.4918C64.8808 23.4978 64.6185 22.3485 64.6185 21.0514C64.6185 19.7543 64.8845 18.6087 65.4093 17.611C65.934 16.6169 66.6583 15.8371 67.5822 15.2791C68.5024 14.7211 69.5666 14.4403 70.7751 14.4403C71.9835 14.4403 73.0921 14.7174 74.0122 15.2791C74.9361 15.8408 75.6493 16.6132 76.163 17.611C76.6767 18.605 76.9316 19.7543 76.9316 21.0514C76.9316 22.9841 76.3662 24.5694 75.2354 25.8037ZM106.399 22.6996L102.179 11.0663C101.987 10.5416 101.488 10.1905 100.93 10.1905H99.895C99.3333 10.1905 98.8344 10.5416 98.646 11.0663L94.4258 22.6996C94.2743 23.1171 93.6867 23.1171 93.5352 22.6996L89.1968 11.0516C89.0009 10.5305 88.5057 10.1868 87.9477 10.1868H85.6824C84.7401 10.1868 84.0971 11.1403 84.4481 12.0124L92.1125 31.0771C92.312 31.5797 92.8035 31.9123 93.3467 31.9123H94.4369C94.9838 31.9123 95.4753 31.576 95.6785 31.066L99.9726 20.0943C100.132 19.6915 100.701 19.6915 100.856 20.0943L105.15 31.066C105.349 31.576 105.841 31.9123 106.392 31.9123H107.482C108.025 31.9123 108.513 31.5834 108.716 31.0771L116.38 12.0124C116.731 11.1366 116.088 10.1868 115.146 10.1868H112.881C112.323 10.1868 111.828 10.5305 111.632 11.0516L107.293 22.6996C107.138 23.1171 106.55 23.1134 106.403 22.6996H106.399ZM134.769 11.4581C134.769 11.872 134.285 12.0826 133.978 11.8091C133.538 11.4285 133.058 11.0885 132.529 10.7966C131.243 10.0908 129.776 9.7323 128.117 9.7323C126.155 9.7323 124.381 10.2386 122.799 11.2474C121.214 12.26 119.961 13.6162 119.041 15.3198C118.121 17.0271 117.659 18.9487 117.659 21.092C117.659 23.2354 118.117 25.1127 119.041 26.82C119.961 28.5272 121.214 29.8761 122.799 30.8702C124.381 31.8642 126.155 32.3668 128.117 32.3668C129.776 32.3668 131.254 32.012 132.552 31.3025C133.073 31.018 133.549 30.6891 133.978 30.3158C134.288 30.0461 134.765 30.2604 134.765 30.6706C134.765 31.3579 135.323 31.916 136.01 31.916H138.505C139.192 31.916 139.75 31.3579 139.75 30.6706V11.4248C139.75 10.7375 139.192 10.1794 138.505 10.1794H136.01C135.323 10.1794 134.765 10.7375 134.765 11.4248V11.4544H134.769V11.4581ZM133.387 25.8037C132.252 27.0417 130.767 27.6625 128.926 27.6625C127.718 27.6625 126.657 27.3854 125.733 26.8237C124.813 26.2656 124.089 25.4896 123.561 24.4918C123.032 23.4978 122.77 22.3485 122.77 21.0514C122.77 19.7543 123.036 18.6087 123.561 17.611C124.089 16.6169 124.813 15.8371 125.733 15.2791C126.654 14.7211 127.718 14.4403 128.926 14.4403C130.135 14.4403 131.243 14.7174 132.163 15.2791C133.084 15.8408 133.801 16.6132 134.314 17.611C134.828 18.605 135.083 19.7543 135.083 21.0514C135.083 22.9841 134.517 24.5694 133.387 25.8037ZM149.565 11.5172C149.565 11.7833 149.894 11.9237 150.075 11.7278C151.302 10.4233 153.069 9.7323 155.223 9.7323C156.309 9.7323 157.289 9.93185 158.168 10.3199C158.656 10.5416 159.129 10.8372 159.584 11.2068C160.182 11.6983 160.234 12.6073 159.691 13.1654L158.194 14.7026C157.754 15.1535 157.071 15.22 156.527 14.8985C156.369 14.8061 156.206 14.7285 156.036 14.662C155.552 14.4809 154.998 14.3922 154.358 14.3922C152.969 14.3922 151.823 14.832 150.918 15.7078C150.012 16.5836 149.558 17.9583 149.558 19.8282V30.5856C149.558 31.321 148.963 31.916 148.228 31.916H145.91C145.175 31.916 144.58 31.3173 144.58 30.5856V11.5172C144.58 10.7818 145.175 10.1868 145.91 10.1868H148.228C148.963 10.1868 149.558 10.7855 149.558 11.5172H149.565ZM177.451 12.6073C176.823 11.883 176.08 11.2807 175.212 10.7966C173.926 10.0908 172.458 9.7323 170.799 9.7323C168.837 9.7323 167.063 10.2386 165.481 11.2474C163.896 12.26 162.643 13.6162 161.723 15.3198C160.799 17.0271 160.341 18.9487 160.341 21.092C160.341 23.2354 160.799 25.1127 161.723 26.82C162.643 28.5272 163.896 29.8761 165.481 30.8702C167.063 31.8642 168.837 32.3668 170.799 32.3668C172.458 32.3668 173.937 32.012 175.234 31.3025C175.758 31.018 176.231 30.6891 176.664 30.3158C176.974 30.0461 177.451 30.2604 177.451 30.6706C177.451 31.3579 178.009 31.916 178.696 31.916H181.191C181.878 31.916 182.436 31.3579 182.436 30.6706V2.33036C182.436 1.59496 181.837 1 181.106 1H178.789C178.053 1 177.458 1.59866 177.458 2.33036V12.6073H177.451ZM174.849 26.82C173.926 27.3817 172.85 27.6588 171.612 27.6588C170.374 27.6588 169.343 27.3817 168.419 26.82C167.499 26.2619 166.771 25.4859 166.246 24.4881C165.718 23.4941 165.456 22.3448 165.456 21.0477C165.456 19.7506 165.722 18.605 166.246 17.6073C166.771 16.6132 167.499 15.8335 168.419 15.2754C169.34 14.7174 170.404 14.4366 171.612 14.4366C172.821 14.4366 173.929 14.7137 174.849 15.2754C175.77 15.8371 176.486 16.6095 177 17.6073C177.514 18.6013 177.769 19.7506 177.769 21.0477C177.769 22.3448 177.51 23.4904 177 24.4881C176.486 25.4822 175.77 26.2619 174.849 26.82ZM193.995 15.3715C194.945 14.8135 196.039 14.5327 197.277 14.5327C198.334 14.5327 199.306 14.7211 200.196 15.0981C200.725 15.3198 201.202 15.6117 201.638 15.9628C202.162 16.3878 202.931 16.3397 203.408 15.8556L204.827 14.4181C205.355 13.8823 205.34 13.0064 204.779 12.5002C203.962 11.7611 203.038 11.1661 202.007 10.7079C200.54 10.0612 198.966 9.73599 197.277 9.73599C195.134 9.73599 193.197 10.2312 191.46 11.2326C189.723 12.2267 188.36 13.5792 187.362 15.2828C186.364 16.9901 185.865 18.9117 185.865 21.0551C185.865 23.1984 186.364 25.0868 187.362 26.8052C188.36 28.5236 189.723 29.8835 191.46 30.8775C193.194 31.8716 195.134 32.3742 197.277 32.3742C198.966 32.3742 200.544 32.049 202.007 31.4023C203.038 30.9441 203.966 30.3454 204.779 29.61C205.337 29.1037 205.355 28.2279 204.827 27.6921L203.408 26.2546C202.931 25.7705 202.162 25.7187 201.638 26.1474C201.202 26.5022 200.717 26.7904 200.196 27.0121C199.306 27.3928 198.334 27.5775 197.277 27.5775C196.039 27.5775 194.945 27.3004 193.995 26.7387C193.046 26.1806 192.307 25.412 191.778 24.4327C191.25 23.4534 190.987 22.3263 190.987 21.0588C190.987 19.7913 191.253 18.6309 191.778 17.6664C192.303 16.7019 193.046 15.9406 193.995 15.3789V15.3715ZM228.485 15.2791C227.472 13.5755 226.109 12.223 224.387 11.2289C222.665 10.2349 220.736 9.7323 218.592 9.7323C216.449 9.7323 214.564 10.2386 212.846 11.2474C211.127 12.26 209.76 13.6088 208.748 15.2976C207.735 16.9864 207.232 18.8896 207.232 20.9997C207.232 23.1097 207.739 25.0314 208.748 26.7497C209.756 28.4681 211.124 29.8354 212.846 30.848C214.568 31.8605 216.482 32.3631 218.592 32.3631C220.702 32.3631 222.665 31.8568 224.387 30.848C226.105 29.8391 227.472 28.4718 228.485 26.7497C229.494 25.0314 230 23.1134 230 20.9997C230 18.8859 229.494 16.979 228.485 15.2717V15.2791ZM224.098 24.3995C223.57 25.3935 222.831 26.1733 221.877 26.7313C220.928 27.293 219.834 27.5701 218.596 27.5701C217.358 27.5701 216.308 27.293 215.359 26.7313C214.409 26.1733 213.67 25.3972 213.141 24.3995C212.613 23.4054 212.351 22.2746 212.351 21.0071C212.351 19.7395 212.617 18.6235 213.141 17.659C213.666 16.6945 214.409 15.9332 215.359 15.3715C216.308 14.8135 217.387 14.5327 218.596 14.5327C219.804 14.5327 220.92 14.8098 221.855 15.3715C222.79 15.9332 223.533 16.6908 224.072 17.659C224.616 18.6235 224.885 19.7395 224.885 21.0071C224.885 22.2746 224.619 23.4091 224.095 24.3995H224.098ZM41.9027 21.0477L50.2248 5.78928L50.8826 4.58457C51.6549 3.16922 50.6313 1.44715 49.0201 1.44715H35.7498C34.9737 1.44715 34.2605 1.87212 33.8873 2.55208L32.1209 5.78558L32.047 5.92231C31.9915 5.87427 31.9361 5.82993 31.8807 5.78928C31.8215 5.74124 31.7624 5.6932 31.6996 5.64516C31.5703 5.54168 31.4372 5.44191 31.3042 5.34213C31.2414 5.29409 31.1785 5.24605 31.1157 5.2017C31.0492 5.15366 30.9864 5.10562 30.9199 5.06128C30.421 4.70652 29.9073 4.37762 29.3752 4.0709C29.3013 4.02656 29.2237 3.98591 29.1498 3.94526C29.0795 3.90461 29.0056 3.86396 28.9317 3.827C28.8209 3.76418 28.71 3.70505 28.5954 3.64962C28.5881 3.64962 28.5844 3.64223 28.5807 3.64223C28.492 3.59419 28.3996 3.54985 28.3109 3.5055C28.2407 3.46855 28.1705 3.43529 28.0966 3.40203C27.9931 3.35399 27.8933 3.30225 27.7898 3.25791C27.5607 3.15074 27.3316 3.05096 27.0951 2.95488C24.7411 1.97929 22.1617 1.44715 19.4493 1.46932C8.76577 1.54692 0.0482554 10.2866 0.000214855 20.9664C-0.0404349 29.7467 5.69118 37.193 13.6216 39.7281C15.048 40.1826 16.5446 40.482 18.0893 40.5965C18.5845 40.6335 19.0871 40.652 19.5934 40.652C22.243 40.652 24.7707 40.1272 27.0766 39.1701C27.0766 39.1701 27.0803 39.1701 27.084 39.1701C28.8911 38.4199 30.5651 37.4111 32.0507 36.1842L32.1172 36.3024L33.8836 39.5359C34.2568 40.2159 34.9701 40.6409 35.7461 40.6409H49.0164C50.6276 40.6409 51.6512 38.9188 50.8789 37.5034L50.2211 36.2987L41.9027 21.0514V21.0477ZM37.8229 5.78928H43.8539C44.4969 5.78928 44.9071 6.48032 44.6003 7.04572L39.4341 16.5171L37.106 12.2489L37.0949 12.2267C37.0432 12.1232 36.9915 12.0235 36.936 11.92L36.6995 11.4839C36.6145 11.3324 36.5258 11.1772 36.4371 11.0294C36.3891 10.9481 36.3411 10.8705 36.293 10.7892C36.2856 10.7781 36.2819 10.7707 36.2745 10.7596C36.2154 10.6635 36.1563 10.5712 36.0935 10.4751C35.9383 10.2312 35.7793 9.99467 35.6131 9.75817C35.5502 9.66578 35.48 9.57339 35.4172 9.48101C35.3507 9.38862 35.2805 9.29624 35.2103 9.20385L36.7106 6.45076C36.9323 6.04057 37.361 5.78558 37.8266 5.78558L37.8229 5.78928ZM32.8563 28.579L26.6553 17.2229C25.2917 14.7174 22.6384 13.0138 19.586 13.0138C19.5306 13.0138 19.4751 13.0138 19.4197 13.0138C15.0554 13.1025 11.5447 16.6686 11.5447 21.0514C11.5447 25.4342 15.1441 29.0927 19.586 29.0927C22.3613 29.0927 24.8113 27.6847 26.2562 25.545L29.9184 32.2596C27.3944 34.5877 24.087 36.077 20.4396 36.2766C20.1588 36.2913 19.8779 36.2987 19.5934 36.2987C18.2667 36.2987 16.977 36.1287 15.7501 35.8072C9.19444 34.1 4.33865 28.1281 4.33865 21.044C4.33865 12.6332 11.1789 5.78928 19.5934 5.78928C23.5697 5.78928 27.1986 7.31918 29.9147 9.82468C29.9147 9.82468 29.9147 9.82468 29.9184 9.82468C31.0751 10.889 32.0654 12.1306 32.8489 13.5053C32.8489 13.5053 32.8489 13.5053 32.8489 13.509L32.9006 13.6014C32.9634 13.7123 33.0226 13.8194 33.0817 13.9303L36.9582 21.0366V21.044L38.8687 24.5399L39.4304 25.5709L44.5893 35.0312C44.896 35.5966 44.4895 36.2876 43.8428 36.2876H37.8118C37.3462 36.2876 36.9175 36.0327 36.6958 35.6262L35.2029 32.8916C35.2029 32.8916 35.2029 32.8879 35.2066 32.8842L32.8526 28.5716" fill="#020E1E"/>
</svg>
