<svg width="230" height="41" viewBox="0 0 230 41" fill="none" xmlns="http://www.w3.org/2000/svg">
<g clip-path="url(#clip0_72_356)">
<path fill-rule="evenodd" clip-rule="evenodd" d="M93.1993 31.2056L84.9028 9.80204H90.0315L95.1301 23.537L100.161 9.74889H104.603L109.732 23.4839L114.762 9.72611H119.831L111.844 31.2056H107.854L102.393 16.9543L97.2042 31.2056H93.1993ZM160.928 9.70333L161.366 9.80204L161.079 10.1437C160.13 11.2744 159.341 12.5314 158.734 13.8793L158.666 14.0311H158.258C156.585 14.0957 155.001 14.8087 153.837 16.0212C152.673 17.2338 152.02 18.852 152.013 20.538V31.1676H147.413V20.1963C147.452 17.2877 148.636 14.5138 150.705 12.4827C152.773 10.4516 155.558 9.32923 158.447 9.36167C159.285 9.37051 160.12 9.47236 160.936 9.66537L160.928 9.70333ZM131.989 27.0372C130.712 27.0462 129.461 26.6737 128.394 25.9667C127.327 25.2597 126.492 24.2501 125.996 23.0655C125.499 21.881 125.363 20.5747 125.604 19.3121C125.844 18.0494 126.452 16.8871 127.349 15.9721C128.247 15.0571 129.393 14.4306 130.644 14.1718C131.896 13.9131 133.195 14.0337 134.378 14.5184C135.561 15.0031 136.574 15.8302 137.29 16.8949C138.006 17.9597 138.392 19.2143 138.4 20.5C138.408 22.2218 137.738 23.8766 136.536 25.102C135.334 26.3273 133.699 27.0232 131.989 27.0372ZM142.97 20.128C142.917 17.2194 141.72 14.4509 139.641 12.4297C137.563 10.4085 134.773 9.29974 131.883 9.34648C130.407 9.31193 128.938 9.57541 127.564 10.1214C126.19 10.6674 124.938 11.4848 123.883 12.5255C122.828 13.5661 121.99 14.8089 121.42 16.1806C120.85 17.5523 120.558 19.0251 120.562 20.5122C120.566 21.9992 120.866 23.4704 121.443 24.839C122.021 26.2075 122.866 27.4457 123.926 28.4806C124.987 29.5154 126.243 30.326 127.62 30.8644C128.997 31.4028 130.467 31.6582 131.944 31.6156C134.332 31.5934 136.628 30.6851 138.392 29.0644V31.1296H143.001L142.97 20.128ZM172.785 27.0296C171.507 27.0386 170.256 26.6659 169.189 25.9586C168.122 25.2513 167.287 24.2412 166.791 23.0562C166.294 21.8712 166.158 20.5646 166.4 19.3017C166.641 18.0388 167.25 16.8765 168.148 15.9618C169.046 15.0471 170.193 14.4212 171.445 14.1633C172.696 13.9054 173.996 14.0271 175.179 14.513C176.362 14.9989 177.375 15.8271 178.09 16.8928C178.805 17.9586 179.19 19.2139 179.196 20.5C179.198 22.2231 178.521 23.8766 177.313 25.0979C176.106 26.3192 174.466 27.0084 172.755 27.0144L172.785 27.0296ZM183.849 0H179.241V11.48C177.824 10.4563 176.187 9.78457 174.463 9.51961C172.739 9.25465 170.977 9.404 169.321 9.95545C167.665 10.5069 166.163 11.4448 164.936 12.6926C163.709 13.9404 162.793 15.4626 162.262 17.135C161.731 18.8073 161.601 20.5824 161.881 22.3151C162.162 24.0479 162.846 25.6892 163.878 27.105C164.909 28.5208 166.258 29.6709 167.815 30.4614C169.373 31.252 171.094 31.6604 172.838 31.6535C175.728 31.6839 178.512 30.5599 180.58 28.5276C182.648 26.4953 183.832 23.7205 183.872 20.8113L183.849 0ZM72.9258 27.0372C71.6498 27.0402 70.4016 26.6625 69.3388 25.9519C68.2759 25.2412 67.4461 24.2294 66.954 23.0443C66.462 21.8592 66.3298 20.5539 66.5742 19.2933C66.8185 18.0326 67.4285 16.8731 68.327 15.9611C69.2256 15.0492 70.3724 14.4257 71.6227 14.1694C72.8729 13.9131 74.1706 14.0355 75.3518 14.5212C76.533 15.0068 77.5448 15.8339 78.2594 16.898C78.974 17.9622 79.3594 19.2156 79.3668 20.5C79.3669 22.2225 78.6892 23.8749 77.4821 25.0957C76.2751 26.3165 74.6368 27.0064 72.9258 27.0144V27.0372ZM83.9676 20.2039C83.9121 17.2959 82.7141 14.5286 80.6361 12.5079C78.5581 10.4872 75.7694 9.37768 72.8805 9.42241C69.997 9.50483 67.2595 10.7176 65.2514 12.8024C63.2432 14.8871 62.1233 17.6789 62.1302 20.5828C62.137 23.4868 63.2702 26.2731 65.2882 28.3482C67.3062 30.4233 70.0495 31.6229 72.9333 31.6915C75.3211 31.6743 77.6181 30.7683 79.3819 29.148V31.2056H83.9827L83.9676 20.2039ZM218.973 27.0372C217.697 27.0432 216.447 26.6681 215.382 25.9593C214.317 25.2504 213.485 24.2397 212.991 23.0549C212.497 21.8701 212.362 20.5643 212.605 19.3026C212.847 18.041 213.456 16.88 214.354 15.9666C215.252 15.0531 216.399 14.4281 217.65 14.1706C218.9 13.9131 220.199 14.0346 221.381 14.5198C222.563 15.005 223.576 15.832 224.291 16.8965C225.006 17.9609 225.392 19.2149 225.399 20.5C225.401 22.2231 224.724 23.8766 223.517 25.0979C222.309 26.3192 220.67 27.0084 218.958 27.0144L218.973 27.0372ZM218.928 9.39963C216.74 9.40865 214.604 10.0705 212.789 11.3016C210.975 12.5326 209.564 14.2776 208.735 16.3158C207.905 18.3541 207.695 20.5941 208.13 22.7527C208.565 24.9114 209.626 26.8917 211.179 28.4433C212.732 29.995 214.707 31.0483 216.855 31.4701C219.002 31.8919 221.226 31.6632 223.244 30.813C225.263 29.9629 226.985 28.5293 228.195 26.6937C229.404 24.858 230.045 22.7026 230.038 20.5C230.026 17.5485 228.852 14.7221 226.774 12.64C224.696 10.558 221.883 9.39 218.951 9.39204L218.928 9.39963ZM202.803 25.6554C201.993 26.2935 201.044 26.7277 200.034 26.9218C199.024 27.116 197.982 27.0645 196.996 26.7717C196.01 26.4788 195.108 25.9531 194.364 25.2382C193.62 24.5233 193.057 23.64 192.721 22.6617C192.385 21.6835 192.286 20.6385 192.432 19.614C192.578 18.5894 192.966 17.6148 193.562 16.7712C194.157 15.9277 194.945 15.2397 195.858 14.7644C196.772 14.2891 197.785 14.0403 198.813 14.0387C200.334 14.0281 201.809 14.5669 202.969 15.5572C203.308 15.8457 203.911 16.438 203.911 16.438C204.336 14.8553 205.008 13.3509 205.903 11.9811C204.288 10.6286 202.323 9.76727 200.24 9.49789C198.156 9.22851 196.039 9.56226 194.137 10.4601C192.235 11.3579 190.627 12.7826 189.5 14.5674C188.373 16.3522 187.774 18.4232 187.774 20.538C187.774 22.6528 188.373 24.7238 189.5 26.5086C190.627 28.2934 192.235 29.7181 194.137 30.6159C196.039 31.5137 198.156 31.8474 200.24 31.578C202.323 31.3087 204.288 30.4473 205.903 29.0948C205.012 27.713 204.342 26.1988 203.919 24.6076C203.919 24.6076 203.21 25.3289 202.803 25.6554Z" fill="#4F4F4F"/>
<path fill-rule="evenodd" clip-rule="evenodd" d="M35.6973 0L33.3592 4.47963C32.9475 4.12012 32.517 3.78304 32.0695 3.46982C28.0824 0.858865 23.3303 -0.305965 18.5971 0.167475C13.864 0.640915 9.4325 2.72434 6.03373 6.07407C4.12846 7.96381 2.61546 10.216 1.58274 12.6998C0.550017 15.1835 0.0181885 17.8492 0.0181885 20.5418C0.0181885 23.2343 0.550017 25.9 1.58274 28.3837C2.61546 30.8675 4.12846 33.1197 6.03373 35.0094C9.63455 38.5521 14.3851 40.6665 19.4114 40.9637C24.4376 41.2608 29.4014 39.7207 33.3894 36.6267L35.652 40.9696H54.2511L52.4712 37.6289C52.3958 37.4998 47.712 28.7152 43.2998 20.5304C47.7648 12.2469 52.5164 3.34074 52.5164 3.34074L54.3039 0H35.6973ZM37.2057 9.77167C36.9418 9.31611 36.6702 8.84537 36.361 8.35944L38.3069 4.69981H46.6033L40.5696 15.8002C39.2195 13.4693 38.0806 11.3889 37.1906 9.77167H37.2057ZM9.38248 31.6839C7.90193 30.2291 6.72539 28.4908 5.9221 26.5715C5.1188 24.6521 4.70498 22.5904 4.70498 20.5076C4.70498 18.4248 5.1188 16.3631 5.9221 14.4437C6.72539 12.5244 7.90193 10.7861 9.38248 9.3313C12.4174 6.35028 16.4933 4.68725 20.7335 4.69981C23.8466 4.69147 26.8947 5.59644 29.5051 7.30407C31.1532 8.4791 32.4895 10.0434 33.3969 11.8596C36.6024 17.6452 43.3828 30.2337 46.6109 36.2394H38.4653C38.4653 36.2394 28.2003 16.81 28.1928 16.7872C27.4855 15.3995 26.4111 14.2354 25.0882 13.4235C23.7652 12.6116 22.2452 12.1834 20.6958 12.1861C19.6025 12.1751 18.5178 12.3817 17.5041 12.7941C16.4904 13.2066 15.5677 13.8166 14.789 14.5892C14.0103 15.3618 13.391 16.2818 12.9666 17.2962C12.5423 18.3105 12.3213 19.3994 12.3164 20.5C12.3263 21.5974 12.5509 22.6822 12.9774 23.6922C13.404 24.7022 14.0241 25.6176 14.8023 26.3862C15.5805 27.1548 16.5015 27.7615 17.5128 28.1715C18.524 28.5816 19.6057 28.7869 20.6958 28.7759C22.0197 28.7728 23.3242 28.4556 24.5036 27.8501C25.6829 27.2446 26.7039 26.3679 27.4838 25.2909L31.2549 32.4052C28.3179 34.948 24.5696 36.3414 20.6958 36.3306C16.4692 36.3454 12.406 34.6874 9.38248 31.7143V31.6839Z" fill="#4F4F4F"/>
</g>
<defs>
<clipPath id="clip0_72_356">
<rect width="230" height="41" fill="white"/>
</clipPath>
</defs>
</svg>
