<svg width="608" height="541" viewBox="0 0 608 541" fill="none" xmlns="http://www.w3.org/2000/svg">
<g clip-path="url(#clip0_321_1457)">
<g filter="url(#filter0_d_321_1457)">
<rect x="102" y="138" width="404" height="249" fill="white"/>
<rect x="164" y="229" width="280" height="81" fill="url(#paint0_linear_321_1457)"/>
<rect x="164" y="229" width="280" height="81" fill="url(#paint1_linear_321_1457)"/>
<g filter="url(#filter1_ii_321_1457)">
<path d="M464 333H144V205H464V333ZM168.869 229.615C166.66 229.615 164.869 231.406 164.869 233.615V304.385C164.869 306.594 166.66 308.385 168.869 308.385H439.131C441.34 308.385 443.131 306.594 443.131 304.385V233.615C443.131 231.406 441.34 229.615 439.131 229.615H168.869Z" fill="url(#paint2_linear_321_1457)"/>
</g>
<g filter="url(#filter2_ii_321_1457)">
<path d="M488 373H120V165H488V373ZM148 205C145.791 205 144 206.791 144 209V329C144 331.209 145.791 333 148 333H460C462.209 333 464 331.209 464 329V209C464 206.791 462.209 205 460 205H148Z" fill="url(#paint3_linear_321_1457)"/>
</g>
<g filter="url(#filter3_ii_321_1457)">
<path d="M528 109C536.837 109 544 116.163 544 125V413C544 421.837 536.837 429 528 429H80C71.1635 429 64 421.837 64 413V125C64 116.163 71.1634 109 80 109H528ZM128 165C123.582 165 120 168.582 120 173V365C120 369.418 123.582 373 128 373H480C484.418 373 488 369.418 488 365V173C488 168.582 484.418 165 480 165H128Z" fill="url(#paint4_linear_321_1457)"/>
</g>
<rect x="184" y="28" width="240" height="77" fill="url(#paint5_linear_321_1457)"/>
<path d="M272.832 58.4876C272.832 58.8007 272.465 58.9648 272.23 58.756C271.866 58.4339 271.466 58.1506 271.025 57.9061C269.987 57.3364 268.803 57.0472 267.464 57.0472C265.88 57.0472 264.449 57.4557 263.172 58.2699C261.893 59.087 260.882 60.1815 260.139 61.5564C259.397 62.9342 259.024 64.488 259.024 66.2147C259.024 67.9415 259.394 69.4595 260.139 70.8373C260.882 72.2151 261.893 73.3036 263.172 74.1059C264.449 74.9081 265.88 75.3137 267.464 75.3137C268.803 75.3137 269.996 75.0274 271.043 74.4548C271.466 74.2252 271.848 73.9597 272.197 73.6585C272.447 73.4408 272.832 73.6138 272.832 73.9448C272.832 74.4995 273.282 74.9499 273.837 74.9499H275.85C276.405 74.9499 276.855 74.4995 276.855 73.9448V58.4816C276.855 57.8882 276.372 57.408 275.782 57.408H273.912C273.318 57.408 272.838 57.8911 272.838 58.4816L272.832 58.4876ZM271.717 70.0171C270.801 71.0162 269.602 71.5172 268.117 71.5172C267.142 71.5172 266.286 71.2936 265.54 70.8403C264.795 70.3899 264.21 69.7637 263.787 68.9584C263.36 68.1562 263.149 67.2287 263.149 66.1819C263.149 65.1351 263.363 64.2106 263.787 63.4054C264.21 62.6032 264.795 61.9739 265.54 61.5236C266.283 61.0733 267.142 60.8466 268.117 60.8466C269.092 60.8466 269.987 61.0703 270.73 61.5236C271.475 61.9769 272.051 62.6002 272.465 63.4054C272.88 64.2076 273.086 65.1351 273.086 66.1819C273.086 67.7417 272.629 69.0211 271.717 70.0171ZM296.866 67.512L293.461 58.1238C293.305 57.7003 292.903 57.417 292.453 57.417H291.618C291.164 57.417 290.762 57.7003 290.609 58.1238L287.204 67.512C287.081 67.849 286.607 67.849 286.485 67.512L282.984 58.1118C282.826 57.6913 282.426 57.414 281.976 57.414H280.148C279.387 57.414 278.868 58.1834 279.152 58.8872L285.337 74.2729C285.498 74.6785 285.894 74.9469 286.333 74.9469H287.213C287.654 74.9469 288.051 74.6755 288.215 74.2639L291.68 65.4095C291.808 65.0844 292.268 65.0844 292.393 65.4095L295.858 74.2639C296.019 74.6755 296.416 74.9469 296.86 74.9469H297.74C298.179 74.9469 298.572 74.6815 298.736 74.2729L304.922 58.8872C305.205 58.1804 304.686 57.414 303.925 57.414H302.097C301.647 57.414 301.247 57.6913 301.089 58.1118L297.588 67.512C297.463 67.849 296.989 67.846 296.869 67.512H296.866ZM319.761 58.4399C319.761 58.7739 319.371 58.9439 319.123 58.7232C318.768 58.416 318.381 58.1417 317.954 57.9061C316.916 57.3364 315.732 57.0472 314.393 57.0472C312.81 57.0472 311.378 57.4557 310.102 58.2699C308.822 59.087 307.811 60.1815 307.069 61.5564C306.326 62.9342 305.953 64.485 305.953 66.2147C305.953 67.9445 306.323 69.4595 307.069 70.8373C307.811 72.2151 308.822 73.3036 310.102 74.1059C311.378 74.9081 312.81 75.3137 314.393 75.3137C315.732 75.3137 316.925 75.0274 317.972 74.4548C318.393 74.2252 318.777 73.9597 319.123 73.6585C319.374 73.4408 319.758 73.6138 319.758 73.9448C319.758 74.4995 320.209 74.9499 320.763 74.9499H322.776C323.331 74.9499 323.782 74.4995 323.782 73.9448V58.413C323.782 57.8583 323.331 57.408 322.776 57.408H320.763C320.209 57.408 319.758 57.8583 319.758 58.413V58.4369H319.761V58.4399ZM318.646 70.0171C317.73 71.0162 316.532 71.5172 315.046 71.5172C314.071 71.5172 313.215 71.2936 312.47 70.8403C311.727 70.3899 311.143 69.7637 310.716 68.9584C310.29 68.1562 310.078 67.2287 310.078 66.1819C310.078 65.1351 310.293 64.2106 310.716 63.4054C311.143 62.6032 311.727 61.9739 312.47 61.5236C313.212 61.0733 314.071 60.8466 315.046 60.8466C316.022 60.8466 316.916 61.0703 317.659 61.5236C318.401 61.9769 318.98 62.6002 319.395 63.4054C319.809 64.2076 320.015 65.1351 320.015 66.1819C320.015 67.7417 319.559 69.0211 318.646 70.0171ZM331.702 58.4876C331.702 58.7023 331.968 58.8157 332.114 58.6576C333.104 57.6048 334.53 57.0472 336.268 57.0472C337.145 57.0472 337.935 57.2082 338.645 57.5213C339.039 57.7003 339.421 57.9389 339.787 58.2371C340.271 58.6337 340.312 59.3674 339.874 59.8177L338.666 61.0583C338.311 61.4222 337.76 61.4759 337.321 61.2164C337.193 61.1418 337.062 61.0792 336.924 61.0255C336.534 60.8794 336.086 60.8078 335.571 60.8078C334.449 60.8078 333.525 61.1627 332.794 61.8695C332.063 62.5763 331.697 63.6857 331.697 65.1948V73.8762C331.697 74.4697 331.216 74.9499 330.623 74.9499H328.753C328.16 74.9499 327.679 74.4667 327.679 73.8762V58.4876C327.679 57.8941 328.16 57.414 328.753 57.414H330.623C331.216 57.414 331.697 57.8971 331.697 58.4876H331.702ZM354.207 59.3674C353.7 58.7829 353.1 58.2967 352.4 57.9061C351.362 57.3364 350.178 57.0472 348.839 57.0472C347.255 57.0472 345.824 57.4557 344.547 58.2699C343.268 59.087 342.257 60.1815 341.514 61.5564C340.769 62.9342 340.399 64.485 340.399 66.2147C340.399 67.9445 340.769 69.4595 341.514 70.8373C342.257 72.2151 343.268 73.3036 344.547 74.1059C345.824 74.9081 347.255 75.3137 348.839 75.3137C350.178 75.3137 351.371 75.0274 352.417 74.4548C352.841 74.2252 353.223 73.9597 353.572 73.6585C353.822 73.4408 354.207 73.6138 354.207 73.9448C354.207 74.4995 354.657 74.9499 355.212 74.9499H357.225C357.78 74.9499 358.23 74.4995 358.23 73.9448V51.0736C358.23 50.4801 357.747 50 357.156 50H355.286C354.693 50 354.213 50.4831 354.213 51.0736V59.3674H354.207ZM352.107 70.8373C351.362 71.2906 350.494 71.5143 349.495 71.5143C348.496 71.5143 347.664 71.2906 346.918 70.8373C346.176 70.3869 345.588 69.7607 345.165 68.9555C344.738 68.1532 344.526 67.2257 344.526 66.1789C344.526 65.1322 344.741 64.2076 345.165 63.4024C345.588 62.6002 346.176 61.9709 346.918 61.5206C347.661 61.0703 348.52 60.8436 349.495 60.8436C350.47 60.8436 351.365 61.0673 352.107 61.5206C352.85 61.9739 353.428 62.5972 353.843 63.4024C354.258 64.2047 354.463 65.1322 354.463 66.1789C354.463 67.2257 354.255 68.1502 353.843 68.9555C353.428 69.7577 352.85 70.3869 352.107 70.8373ZM367.559 61.5981C368.325 61.1478 369.208 60.9212 370.207 60.9212C371.06 60.9212 371.844 61.0733 372.563 61.3774C372.989 61.5564 373.374 61.792 373.726 62.0753C374.149 62.4183 374.77 62.3795 375.154 61.9888L376.3 60.8287C376.726 60.3963 376.714 59.6895 376.261 59.2809C375.602 58.6844 374.856 58.2043 374.024 57.8345C372.84 57.3126 371.57 57.0501 370.207 57.0501C368.477 57.0501 366.914 57.4498 365.513 58.258C364.111 59.0602 363.011 60.1517 362.205 61.5266C361.4 62.9044 360.998 64.4552 360.998 66.1849C360.998 67.9146 361.4 69.4386 362.205 70.8253C363.011 72.2121 364.111 73.3096 365.513 74.1118C366.911 74.9141 368.477 75.3197 370.207 75.3197C371.57 75.3197 372.843 75.0572 374.024 74.5353C374.856 74.1655 375.605 73.6824 376.261 73.0889C376.711 72.6803 376.726 71.9735 376.3 71.5411L375.154 70.381C374.77 69.9903 374.149 69.9486 373.726 70.2945C373.374 70.5808 372.983 70.8134 372.563 70.9924C371.844 71.2995 371.06 71.4486 370.207 71.4486C369.208 71.4486 368.325 71.225 367.559 70.7717C366.792 70.3213 366.196 69.701 365.769 68.9107C365.343 68.1204 365.131 67.2108 365.131 66.1879C365.131 65.165 365.346 64.2285 365.769 63.4501C366.193 62.6718 366.792 62.0574 367.559 61.6041V61.5981ZM395.392 61.5236C394.575 60.1487 393.475 59.0572 392.085 58.255C390.695 57.4528 389.138 57.0472 387.409 57.0472C385.679 57.0472 384.158 57.4557 382.771 58.2699C381.385 59.087 380.281 60.1756 379.464 61.5385C378.647 62.9014 378.241 64.4373 378.241 66.1402C378.241 67.8431 378.65 69.3939 379.464 70.7806C380.278 72.1674 381.382 73.2708 382.771 74.088C384.161 74.9051 385.706 75.3107 387.409 75.3107C389.112 75.3107 390.695 74.9021 392.085 74.088C393.472 73.2738 394.575 72.1704 395.392 70.7806C396.206 69.3939 396.615 67.846 396.615 66.1402C396.615 64.4343 396.206 62.8954 395.392 61.5176V61.5236ZM391.852 68.8839C391.426 69.6861 390.829 70.3154 390.06 70.7657C389.294 71.219 388.411 71.4427 387.412 71.4427C386.413 71.4427 385.566 71.219 384.799 70.7657C384.033 70.3154 383.436 69.6891 383.01 68.8839C382.583 68.0816 382.372 67.1691 382.372 66.1461C382.372 65.1232 382.586 64.2226 383.01 63.4442C383.433 62.6658 384.033 62.0514 384.799 61.5981C385.566 61.1478 386.437 60.9212 387.412 60.9212C388.387 60.9212 389.288 61.1448 390.042 61.5981C390.797 62.0514 391.396 62.6628 391.831 63.4442C392.27 64.2226 392.488 65.1232 392.488 66.1461C392.488 67.1691 392.273 68.0846 391.849 68.8839H391.852ZM244.816 66.1789L251.533 53.8651L252.063 52.8928C252.687 51.7506 251.861 50.3609 250.56 50.3609H239.851C239.225 50.3609 238.649 50.7038 238.348 51.2526L236.922 53.8621L236.863 53.9724C236.818 53.9336 236.773 53.8979 236.728 53.8651C236.681 53.8263 236.633 53.7875 236.582 53.7487C236.478 53.6652 236.371 53.5847 236.263 53.5042C236.212 53.4654 236.162 53.4267 236.111 53.3909C236.057 53.3521 236.007 53.3133 235.953 53.2775C235.55 52.9912 235.136 52.7258 234.706 52.4783C234.647 52.4425 234.584 52.4097 234.524 52.3769C234.468 52.3441 234.408 52.3113 234.349 52.2815C234.259 52.2308 234.17 52.183 234.077 52.1383C234.071 52.1383 234.068 52.1323 234.065 52.1323C233.994 52.0936 233.919 52.0578 233.848 52.022C233.791 51.9922 233.734 51.9653 233.675 51.9385C233.591 51.8997 233.511 51.858 233.427 51.8222C233.242 51.7357 233.057 51.6552 232.866 51.5776C230.967 50.7903 228.885 50.3609 226.696 50.3788C218.074 50.4414 211.039 57.4945 211 66.1133C210.967 73.1993 215.593 79.2086 221.993 81.2544C223.144 81.6213 224.352 81.8628 225.598 81.9553C225.998 81.9851 226.404 82 226.812 82C228.951 82 230.99 81.5765 232.851 80.8041C232.851 80.8041 232.854 80.8041 232.857 80.8041C234.316 80.1987 235.667 79.3845 236.866 78.3944L236.919 78.4898L238.345 81.0993C238.646 81.6481 239.222 81.9911 239.848 81.9911H250.557C251.858 81.9911 252.684 80.6013 252.06 79.4591L251.53 78.4869L244.816 66.1819V66.1789ZM241.524 53.8651H246.391C246.91 53.8651 247.241 54.4227 246.993 54.879L242.824 62.5226L240.945 59.0781L240.936 59.0602C240.895 58.9767 240.853 58.8962 240.808 58.8127L240.617 58.4608C240.549 58.3385 240.477 58.2132 240.406 58.0939C240.367 58.0283 240.328 57.9657 240.289 57.9001C240.283 57.8911 240.28 57.8852 240.274 57.8762C240.227 57.7987 240.179 57.7241 240.128 57.6466C240.003 57.4498 239.875 57.2589 239.741 57.068C239.69 56.9935 239.633 56.9189 239.582 56.8444C239.529 56.7698 239.472 56.6952 239.415 56.6207L240.626 54.3989C240.805 54.0678 241.151 53.8621 241.527 53.8621L241.524 53.8651ZM237.516 72.2568L232.511 63.0923C231.411 61.0703 229.27 59.6954 226.806 59.6954C226.762 59.6954 226.717 59.6954 226.672 59.6954C223.15 59.767 220.317 62.6449 220.317 66.1819C220.317 69.7189 223.222 72.6714 226.806 72.6714C229.046 72.6714 231.023 71.5351 232.189 69.8084L235.145 75.2272C233.108 77.1061 230.439 78.3079 227.495 78.469C227.269 78.4809 227.042 78.4869 226.812 78.4869C225.742 78.4869 224.701 78.3497 223.711 78.0902C218.42 76.7124 214.501 71.893 214.501 66.176C214.501 59.3883 220.022 53.8651 226.812 53.8651C230.021 53.8651 232.95 55.0997 235.142 57.1217C235.142 57.1217 235.142 57.1217 235.145 57.1217C236.078 57.9806 236.878 58.9827 237.51 60.0921C237.51 60.0921 237.51 60.0921 237.51 60.0951L237.552 60.1696C237.602 60.2591 237.65 60.3456 237.698 60.435L240.826 66.17V66.176L242.368 68.9972L242.821 69.8293L246.985 77.4639C247.232 77.9202 246.904 78.4779 246.382 78.4779H241.515C241.139 78.4779 240.793 78.2721 240.614 77.9441L239.409 75.7372C239.409 75.7372 239.409 75.7342 239.412 75.7312L237.513 72.2509" fill="white"/>
<g style="mix-blend-mode:lighten">
<rect x="184" y="28" width="240" height="77" fill="url(#paint6_linear_321_1457)"/>
</g>
<path d="M504 133C512.837 133 520 140.163 520 149V389C520 397.837 512.837 405 504 405H104C95.1634 405 88 397.837 88 389V149C88 140.163 95.1634 133 104 133H504ZM112 141C103.163 141 96 148.163 96 157V381C96 389.837 103.163 397 112 397H496C504.837 397 512 389.837 512 381V157C512 148.163 504.837 141 496 141H112Z" fill="url(#paint7_linear_321_1457)"/>
<g filter="url(#filter4_i_321_1457)">
<path d="M528 109C536.837 109 544 116.163 544 125V413C544 421.837 536.837 429 528 429H80C71.1635 429 64 421.837 64 413V125C64 116.163 71.1634 109 80 109H156V16C156 7.16345 163.163 0 172 0H436C444.837 4.38095e-06 452 7.16345 452 16V109H528ZM104 133C95.1634 133 88 140.163 88 149V389C88 397.837 95.1634 405 104 405H504C512.837 405 520 397.837 520 389V149C520 140.163 512.837 133 504 133H104ZM188 28C185.791 28 184 29.7909 184 32V101C184 103.209 185.791 105 188 105H420C422.209 105 424 103.209 424 101V32C424 29.7909 422.209 28 420 28H188Z" fill="url(#paint8_linear_321_1457)"/>
</g>
<path d="M420 28C422.209 28 424 29.7909 424 32V101C424 103.209 422.209 105 420 105H188C185.791 105 184 103.209 184 101V32C184 29.7909 185.791 28 188 28H420ZM196 36C193.791 36 192 37.7909 192 40V93C192 95.2091 193.791 97 196 97H412C414.209 97 416 95.2091 416 93V40C416 37.7909 414.209 36 412 36H196Z" fill="url(#paint9_linear_321_1457)"/>
<path d="M80 429H528L608 509H0L80 429Z" fill="url(#paint10_linear_321_1457)"/>
<path d="M0 509H608V537C608 539.209 606.209 541 604 541H3.99998C1.79085 541 0 539.209 0 537V509Z" fill="url(#paint11_linear_321_1457)"/>
</g>
</g>
<defs>
<filter id="filter0_d_321_1457" x="-20" y="-12" width="648" height="581" filterUnits="userSpaceOnUse" color-interpolation-filters="sRGB">
<feFlood flood-opacity="0" result="BackgroundImageFix"/>
<feColorMatrix in="SourceAlpha" type="matrix" values="0 0 0 0 0 0 0 0 0 0 0 0 0 0 0 0 0 0 127 0" result="hardAlpha"/>
<feOffset dy="8"/>
<feGaussianBlur stdDeviation="10"/>
<feComposite in2="hardAlpha" operator="out"/>
<feColorMatrix type="matrix" values="0 0 0 0 0 0 0 0 0 0 0 0 0 0 0 0 0 0 0.25 0"/>
<feBlend mode="normal" in2="BackgroundImageFix" result="effect1_dropShadow_321_1457"/>
<feBlend mode="normal" in="SourceGraphic" in2="effect1_dropShadow_321_1457" result="shape"/>
</filter>
<filter id="filter1_ii_321_1457" x="144" y="202" width="320" height="132" filterUnits="userSpaceOnUse" color-interpolation-filters="sRGB">
<feFlood flood-opacity="0" result="BackgroundImageFix"/>
<feBlend mode="normal" in="SourceGraphic" in2="BackgroundImageFix" result="shape"/>
<feColorMatrix in="SourceAlpha" type="matrix" values="0 0 0 0 0 0 0 0 0 0 0 0 0 0 0 0 0 0 127 0" result="hardAlpha"/>
<feOffset dy="1"/>
<feGaussianBlur stdDeviation="4"/>
<feComposite in2="hardAlpha" operator="arithmetic" k2="-1" k3="1"/>
<feColorMatrix type="matrix" values="0 0 0 0 0.3625 0 0 0 0 0.103958 0 0 0 0 0.0317187 0 0 0 1 0"/>
<feBlend mode="normal" in2="shape" result="effect1_innerShadow_321_1457"/>
<feColorMatrix in="SourceAlpha" type="matrix" values="0 0 0 0 0 0 0 0 0 0 0 0 0 0 0 0 0 0 127 0" result="hardAlpha"/>
<feOffset dy="-3"/>
<feGaussianBlur stdDeviation="4.5"/>
<feComposite in2="hardAlpha" operator="arithmetic" k2="-1" k3="1"/>
<feColorMatrix type="matrix" values="0 0 0 0 1 0 0 0 0 1 0 0 0 0 1 0 0 0 0.67 0"/>
<feBlend mode="normal" in2="effect1_innerShadow_321_1457" result="effect2_innerShadow_321_1457"/>
</filter>
<filter id="filter2_ii_321_1457" x="120" y="161" width="368" height="214" filterUnits="userSpaceOnUse" color-interpolation-filters="sRGB">
<feFlood flood-opacity="0" result="BackgroundImageFix"/>
<feBlend mode="normal" in="SourceGraphic" in2="BackgroundImageFix" result="shape"/>
<feColorMatrix in="SourceAlpha" type="matrix" values="0 0 0 0 0 0 0 0 0 0 0 0 0 0 0 0 0 0 127 0" result="hardAlpha"/>
<feOffset dy="-4"/>
<feGaussianBlur stdDeviation="3.5"/>
<feComposite in2="hardAlpha" operator="arithmetic" k2="-1" k3="1"/>
<feColorMatrix type="matrix" values="0 0 0 0 0.329167 0 0 0 0 0.112245 0 0 0 0 0.0342882 0 0 0 0.3 0"/>
<feBlend mode="normal" in2="shape" result="effect1_innerShadow_321_1457"/>
<feColorMatrix in="SourceAlpha" type="matrix" values="0 0 0 0 0 0 0 0 0 0 0 0 0 0 0 0 0 0 127 0" result="hardAlpha"/>
<feOffset dy="2"/>
<feGaussianBlur stdDeviation="2.5"/>
<feComposite in2="hardAlpha" operator="arithmetic" k2="-1" k3="1"/>
<feColorMatrix type="matrix" values="0 0 0 0 0.433333 0 0 0 0 0.131042 0 0 0 0 0.0668055 0 0 0 1 0"/>
<feBlend mode="normal" in2="effect1_innerShadow_321_1457" result="effect2_innerShadow_321_1457"/>
</filter>
<filter id="filter3_ii_321_1457" x="64" y="107" width="480" height="324" filterUnits="userSpaceOnUse" color-interpolation-filters="sRGB">
<feFlood flood-opacity="0" result="BackgroundImageFix"/>
<feBlend mode="normal" in="SourceGraphic" in2="BackgroundImageFix" result="shape"/>
<feColorMatrix in="SourceAlpha" type="matrix" values="0 0 0 0 0 0 0 0 0 0 0 0 0 0 0 0 0 0 127 0" result="hardAlpha"/>
<feOffset dy="4"/>
<feGaussianBlur stdDeviation="1"/>
<feComposite in2="hardAlpha" operator="arithmetic" k2="-1" k3="1"/>
<feColorMatrix type="matrix" values="0 0 0 0 1 0 0 0 0 1 0 0 0 0 1 0 0 0 0.55 0"/>
<feBlend mode="normal" in2="shape" result="effect1_innerShadow_321_1457"/>
<feColorMatrix in="SourceAlpha" type="matrix" values="0 0 0 0 0 0 0 0 0 0 0 0 0 0 0 0 0 0 127 0" result="hardAlpha"/>
<feOffset dy="-4"/>
<feGaussianBlur stdDeviation="1"/>
<feComposite in2="hardAlpha" operator="arithmetic" k2="-1" k3="1"/>
<feColorMatrix type="matrix" values="0 0 0 0 0 0 0 0 0 0 0 0 0 0 0 0 0 0 0.55 0"/>
<feBlend mode="normal" in2="effect1_innerShadow_321_1457" result="effect2_innerShadow_321_1457"/>
</filter>
<filter id="filter4_i_321_1457" x="64" y="0" width="480" height="433" filterUnits="userSpaceOnUse" color-interpolation-filters="sRGB">
<feFlood flood-opacity="0" result="BackgroundImageFix"/>
<feBlend mode="normal" in="SourceGraphic" in2="BackgroundImageFix" result="shape"/>
<feColorMatrix in="SourceAlpha" type="matrix" values="0 0 0 0 0 0 0 0 0 0 0 0 0 0 0 0 0 0 127 0" result="hardAlpha"/>
<feOffset dy="4"/>
<feGaussianBlur stdDeviation="2"/>
<feComposite in2="hardAlpha" operator="arithmetic" k2="-1" k3="1"/>
<feColorMatrix type="matrix" values="0 0 0 0 0.02 0 0 0 0 0.236604 0 0 0 0 0.3 0 0 0 0.15 0"/>
<feBlend mode="normal" in2="shape" result="effect1_innerShadow_321_1457"/>
</filter>
<linearGradient id="paint0_linear_321_1457" x1="304" y1="229" x2="304" y2="310" gradientUnits="userSpaceOnUse">
<stop stop-color="#515A5A" stop-opacity="0.9"/>
<stop offset="0.0572917" stop-color="#8BA09F" stop-opacity="0.75"/>
<stop offset="0.244792" stop-color="#EAF9F8" stop-opacity="0.15"/>
<stop offset="0.479167" stop-color="#E9FFFE" stop-opacity="0"/>
<stop offset="0.708333" stop-color="#CCDFDE" stop-opacity="0.15"/>
<stop offset="0.911458" stop-color="#95A9A8" stop-opacity="0.75"/>
<stop offset="0.958333" stop-color="#778685" stop-opacity="0.9"/>
</linearGradient>
<linearGradient id="paint1_linear_321_1457" x1="444" y1="269" x2="164" y2="269" gradientUnits="userSpaceOnUse">
<stop stop-color="#626D6D"/>
<stop offset="0.03125" stop-color="#889A99" stop-opacity="0"/>
<stop offset="0.510417" stop-color="#DEFEFC" stop-opacity="0"/>
<stop offset="0.979167" stop-color="#829B9A" stop-opacity="0"/>
<stop offset="1" stop-color="#6C8482"/>
</linearGradient>
<linearGradient id="paint2_linear_321_1457" x1="304" y1="205" x2="304" y2="333" gradientUnits="userSpaceOnUse">
<stop stop-color="#732B12"/>
<stop offset="0.446944" stop-color="#BA7731"/>
<stop offset="0.802083" stop-color="#A76126"/>
<stop offset="1" stop-color="#DA9E4C"/>
</linearGradient>
<linearGradient id="paint3_linear_321_1457" x1="304" y1="165" x2="304" y2="373" gradientUnits="userSpaceOnUse">
<stop stop-color="#E9CB95"/>
<stop offset="0.446944" stop-color="#E6B75F"/>
<stop offset="0.896174" stop-color="#A76126"/>
<stop offset="1" stop-color="#B37336"/>
</linearGradient>
<linearGradient id="paint4_linear_321_1457" x1="304" y1="109" x2="304" y2="429" gradientUnits="userSpaceOnUse">
<stop stop-color="#A59F9F"/>
<stop offset="0.484375" stop-color="#161616"/>
<stop offset="1" stop-color="#3C3C3C"/>
</linearGradient>
<linearGradient id="paint5_linear_321_1457" x1="304" y1="28" x2="304" y2="105" gradientUnits="userSpaceOnUse">
<stop offset="0.104167" stop-color="#848080"/>
<stop offset="0.421875" stop-color="#1E1D1D"/>
<stop offset="0.723958" stop-color="#343434"/>
</linearGradient>
<linearGradient id="paint6_linear_321_1457" x1="304" y1="28" x2="304" y2="105" gradientUnits="userSpaceOnUse">
<stop offset="0.104167" stop-color="#848080"/>
<stop offset="0.421875" stop-color="#1E1D1D"/>
<stop offset="0.723958" stop-color="#343434"/>
</linearGradient>
<linearGradient id="paint7_linear_321_1457" x1="304" y1="133" x2="304" y2="405" gradientUnits="userSpaceOnUse">
<stop stop-color="#966A13"/>
<stop offset="1" stop-color="#CF9C5C"/>
</linearGradient>
<linearGradient id="paint8_linear_321_1457" x1="304" y1="-13" x2="304" y2="429" gradientUnits="userSpaceOnUse">
<stop offset="0.0240385" stop-color="#8D6007"/>
<stop offset="0.0480769" stop-color="#E8C88F"/>
<stop offset="0.144796" stop-color="#E8C17D"/>
<stop offset="0.274038" stop-color="#8D6007"/>
<stop offset="0.298077" stop-color="#E6B862"/>
<stop offset="0.495475" stop-color="#E8C17D"/>
<stop offset="0.866516" stop-color="#A96429"/>
<stop offset="1" stop-color="#9C5D2A"/>
</linearGradient>
<linearGradient id="paint9_linear_321_1457" x1="304" y1="28" x2="304" y2="105" gradientUnits="userSpaceOnUse">
<stop stop-color="#93670F"/>
<stop offset="0.494792" stop-color="#E6BD73"/>
<stop offset="1" stop-color="#986C15"/>
</linearGradient>
<linearGradient id="paint10_linear_321_1457" x1="304" y1="429" x2="304" y2="509" gradientUnits="userSpaceOnUse">
<stop stop-color="#76341D"/>
<stop offset="0.171875" stop-color="#B87835"/>
<stop offset="0.533654" stop-color="#C1843D"/>
<stop offset="0.947917" stop-color="#E8BE73"/>
<stop offset="1" stop-color="#FFF2DE"/>
</linearGradient>
<linearGradient id="paint11_linear_321_1457" x1="304" y1="509" x2="304" y2="541" gradientUnits="userSpaceOnUse">
<stop stop-color="#D9A85E"/>
<stop offset="1" stop-color="#7B3417"/>
</linearGradient>
<clipPath id="clip0_321_1457">
<rect width="608" height="541" fill="white"/>
</clipPath>
</defs>
</svg>
