<svg width="648" height="581" viewBox="0 0 648 581" fill="none" xmlns="http://www.w3.org/2000/svg">
<g filter="url(#filter0_d_321_1457)">
<rect x="122" y="150" width="404" height="249" fill="white"/>
<rect x="184" y="241" width="280" height="81" fill="url(#paint0_linear_321_1457)"/>
<rect x="184" y="241" width="280" height="81" fill="url(#paint1_linear_321_1457)"/>
<g filter="url(#filter1_ii_321_1457)">
<path d="M484 345H164V217H484V345ZM188.869 241.615C186.66 241.615 184.869 243.406 184.869 245.615V316.385C184.869 318.594 186.66 320.385 188.869 320.385H459.131C461.34 320.385 463.131 318.594 463.131 316.385V245.615C463.131 243.406 461.34 241.615 459.131 241.615H188.869Z" fill="url(#paint2_linear_321_1457)"/>
</g>
<g filter="url(#filter2_ii_321_1457)">
<path d="M508 385H140V177H508V385ZM168 217C165.791 217 164 218.791 164 221V341C164 343.209 165.791 345 168 345H480C482.209 345 484 343.209 484 341V221C484 218.791 482.209 217 480 217H168Z" fill="url(#paint3_linear_321_1457)"/>
</g>
<g filter="url(#filter3_ii_321_1457)">
<path d="M548 121C556.837 121 564 128.163 564 137V425C564 433.837 556.837 441 548 441H100C91.1635 441 84 433.837 84 425V137C84 128.163 91.1634 121 100 121H548ZM148 177C143.582 177 140 180.582 140 185V377C140 381.418 143.582 385 148 385H500C504.418 385 508 381.418 508 377V185C508 180.582 504.418 177 500 177H148Z" fill="url(#paint4_linear_321_1457)"/>
</g>
<rect x="204" y="40" width="240" height="77" fill="url(#paint5_linear_321_1457)"/>
<path d="M292.832 70.4876C292.832 70.8007 292.465 70.9648 292.23 70.756C291.866 70.4339 291.466 70.1506 291.025 69.9061C289.987 69.3364 288.803 69.0472 287.464 69.0472C285.88 69.0472 284.449 69.4557 283.172 70.2699C281.893 71.087 280.882 72.1815 280.139 73.5564C279.397 74.9342 279.024 76.488 279.024 78.2147C279.024 79.9415 279.394 81.4595 280.139 82.8373C280.882 84.2151 281.893 85.3036 283.172 86.1059C284.449 86.9081 285.88 87.3137 287.464 87.3137C288.803 87.3137 289.996 87.0274 291.043 86.4548C291.466 86.2252 291.848 85.9597 292.197 85.6585C292.447 85.4408 292.832 85.6138 292.832 85.9448C292.832 86.4995 293.282 86.9499 293.837 86.9499H295.85C296.405 86.9499 296.855 86.4995 296.855 85.9448V70.4816C296.855 69.8882 296.372 69.408 295.782 69.408H293.912C293.318 69.408 292.838 69.8911 292.838 70.4816L292.832 70.4876ZM291.717 82.0171C290.801 83.0162 289.602 83.5172 288.117 83.5172C287.142 83.5172 286.286 83.2936 285.54 82.8403C284.795 82.3899 284.21 81.7637 283.787 80.9584C283.36 80.1562 283.149 79.2287 283.149 78.1819C283.149 77.1351 283.363 76.2106 283.787 75.4054C284.21 74.6032 284.795 73.9739 285.54 73.5236C286.283 73.0733 287.142 72.8466 288.117 72.8466C289.092 72.8466 289.987 73.0703 290.73 73.5236C291.475 73.9769 292.051 74.6002 292.465 75.4054C292.88 76.2076 293.086 77.1351 293.086 78.1819C293.086 79.7417 292.629 81.0211 291.717 82.0171ZM316.866 79.512L313.461 70.1238C313.305 69.7003 312.903 69.417 312.453 69.417H311.618C311.164 69.417 310.762 69.7003 310.609 70.1238L307.204 79.512C307.081 79.849 306.607 79.849 306.485 79.512L302.984 70.1118C302.826 69.6913 302.426 69.414 301.976 69.414H300.148C299.387 69.414 298.868 70.1834 299.152 70.8872L305.337 86.2729C305.498 86.6785 305.894 86.9469 306.333 86.9469H307.213C307.654 86.9469 308.051 86.6755 308.215 86.2639L311.68 77.4095C311.808 77.0844 312.268 77.0844 312.393 77.4095L315.858 86.2639C316.019 86.6755 316.416 86.9469 316.86 86.9469H317.74C318.179 86.9469 318.572 86.6815 318.736 86.2729L324.921 70.8872C325.205 70.1804 324.686 69.414 323.925 69.414H322.097C321.647 69.414 321.247 69.6913 321.089 70.1118L317.588 79.512C317.463 79.849 316.989 79.846 316.869 79.512H316.866ZM339.761 70.4399C339.761 70.7739 339.371 70.9439 339.123 70.7232C338.768 70.416 338.381 70.1417 337.954 69.9061C336.916 69.3364 335.732 69.0472 334.393 69.0472C332.81 69.0472 331.378 69.4557 330.102 70.2699C328.822 71.087 327.811 72.1815 327.069 73.5564C326.326 74.9342 325.953 76.485 325.953 78.2147C325.953 79.9445 326.323 81.4595 327.069 82.8373C327.811 84.2151 328.822 85.3036 330.102 86.1059C331.378 86.9081 332.81 87.3137 334.393 87.3137C335.732 87.3137 336.925 87.0274 337.972 86.4548C338.393 86.2252 338.777 85.9597 339.123 85.6585C339.374 85.4408 339.758 85.6138 339.758 85.9448C339.758 86.4995 340.209 86.9499 340.763 86.9499H342.776C343.331 86.9499 343.782 86.4995 343.782 85.9448V70.413C343.782 69.8583 343.331 69.408 342.776 69.408H340.763C340.209 69.408 339.758 69.8583 339.758 70.413V70.4369H339.761V70.4399ZM338.646 82.0171C337.73 83.0162 336.532 83.5172 335.046 83.5172C334.071 83.5172 333.215 83.2936 332.47 82.8403C331.727 82.3899 331.143 81.7637 330.716 80.9584C330.29 80.1562 330.078 79.2287 330.078 78.1819C330.078 77.1351 330.293 76.2106 330.716 75.4054C331.143 74.6032 331.727 73.9739 332.47 73.5236C333.212 73.0733 334.071 72.8466 335.046 72.8466C336.022 72.8466 336.916 73.0703 337.659 73.5236C338.401 73.9769 338.98 74.6002 339.395 75.4054C339.809 76.2076 340.015 77.1351 340.015 78.1819C340.015 79.7417 339.559 81.0211 338.646 82.0171ZM351.702 70.4876C351.702 70.7023 351.968 70.8157 352.114 70.6576C353.104 69.6048 354.53 69.0472 356.268 69.0472C357.145 69.0472 357.935 69.2082 358.645 69.5213C359.039 69.7003 359.421 69.9389 359.787 70.2371C360.271 70.6337 360.312 71.3674 359.874 71.8177L358.666 73.0583C358.311 73.4222 357.76 73.4759 357.321 73.2164C357.193 73.1418 357.062 73.0792 356.924 73.0255C356.534 72.8794 356.086 72.8078 355.571 72.8078C354.449 72.8078 353.525 73.1627 352.794 73.8695C352.063 74.5763 351.697 75.6857 351.697 77.1948V85.8762C351.697 86.4697 351.216 86.9499 350.623 86.9499H348.753C348.16 86.9499 347.679 86.4667 347.679 85.8762V70.4876C347.679 69.8941 348.16 69.414 348.753 69.414H350.623C351.216 69.414 351.697 69.8971 351.697 70.4876H351.702ZM374.207 71.3674C373.7 70.7829 373.1 70.2967 372.4 69.9061C371.362 69.3364 370.178 69.0472 368.839 69.0472C367.255 69.0472 365.824 69.4557 364.547 70.2699C363.268 71.087 362.257 72.1815 361.514 73.5564C360.769 74.9342 360.399 76.485 360.399 78.2147C360.399 79.9445 360.769 81.4595 361.514 82.8373C362.257 84.2151 363.268 85.3036 364.547 86.1059C365.824 86.9081 367.255 87.3137 368.839 87.3137C370.178 87.3137 371.371 87.0274 372.417 86.4548C372.841 86.2252 373.223 85.9597 373.572 85.6585C373.822 85.4408 374.207 85.6138 374.207 85.9448C374.207 86.4995 374.657 86.9499 375.212 86.9499H377.225C377.78 86.9499 378.23 86.4995 378.23 85.9448V63.0736C378.23 62.4801 377.747 62 377.156 62H375.286C374.693 62 374.213 62.4831 374.213 63.0736V71.3674H374.207ZM372.107 82.8373C371.362 83.2906 370.494 83.5143 369.495 83.5143C368.496 83.5143 367.664 83.2906 366.918 82.8373C366.176 82.3869 365.588 81.7607 365.165 80.9555C364.738 80.1532 364.526 79.2257 364.526 78.1789C364.526 77.1322 364.741 76.2076 365.165 75.4024C365.588 74.6002 366.176 73.9709 366.918 73.5206C367.661 73.0703 368.52 72.8436 369.495 72.8436C370.47 72.8436 371.365 73.0673 372.107 73.5206C372.85 73.9739 373.428 74.5972 373.843 75.4024C374.258 76.2047 374.463 77.1322 374.463 78.1789C374.463 79.2257 374.255 80.1502 373.843 80.9555C373.428 81.7577 372.85 82.3869 372.107 82.8373ZM387.559 73.5981C388.325 73.1478 389.208 72.9212 390.207 72.9212C391.06 72.9212 391.844 73.0733 392.563 73.3774C392.989 73.5564 393.374 73.792 393.726 74.0753C394.149 74.4183 394.77 74.3795 395.154 73.9888L396.3 72.8287C396.726 72.3963 396.714 71.6895 396.261 71.2809C395.602 70.6844 394.856 70.2043 394.024 69.8345C392.84 69.3126 391.57 69.0501 390.207 69.0501C388.477 69.0501 386.914 69.4498 385.513 70.258C384.111 71.0602 383.011 72.1517 382.205 73.5266C381.4 74.9044 380.998 76.4552 380.998 78.1849C380.998 79.9146 381.4 81.4386 382.205 82.8253C383.011 84.2121 384.111 85.3096 385.513 86.1118C386.911 86.9141 388.477 87.3197 390.207 87.3197C391.57 87.3197 392.843 87.0572 394.024 86.5353C394.856 86.1655 395.605 85.6824 396.261 85.0889C396.711 84.6803 396.726 83.9735 396.3 83.5411L395.154 82.381C394.77 81.9903 394.149 81.9486 393.726 82.2945C393.374 82.5808 392.983 82.8134 392.563 82.9924C391.844 83.2995 391.06 83.4486 390.207 83.4486C389.208 83.4486 388.325 83.225 387.559 82.7717C386.792 82.3213 386.196 81.701 385.769 80.9107C385.343 80.1204 385.131 79.2108 385.131 78.1879C385.131 77.165 385.346 76.2285 385.769 75.4501C386.193 74.6718 386.792 74.0574 387.559 73.6041V73.5981ZM415.392 73.5236C414.575 72.1487 413.475 71.0572 412.085 70.255C410.695 69.4528 409.138 69.0472 407.409 69.0472C405.679 69.0472 404.158 69.4557 402.771 70.2699C401.385 71.087 400.281 72.1756 399.464 73.5385C398.647 74.9014 398.241 76.4373 398.241 78.1402C398.241 79.8431 398.65 81.3938 399.464 82.7806C400.278 84.1674 401.382 85.2708 402.771 86.088C404.161 86.9051 405.706 87.3107 407.409 87.3107C409.112 87.3107 410.695 86.9021 412.085 86.088C413.472 85.2738 414.575 84.1704 415.392 82.7806C416.206 81.3938 416.615 79.846 416.615 78.1402C416.615 76.4343 416.206 74.8954 415.392 73.5176V73.5236ZM411.852 80.8839C411.426 81.6861 410.829 82.3154 410.06 82.7657C409.294 83.219 408.411 83.4427 407.412 83.4427C406.413 83.4427 405.566 83.219 404.799 82.7657C404.033 82.3154 403.436 81.6891 403.01 80.8839C402.583 80.0816 402.372 79.1691 402.372 78.1461C402.372 77.1232 402.586 76.2226 403.01 75.4442C403.433 74.6658 404.033 74.0514 404.799 73.5981C405.566 73.1478 406.437 72.9212 407.412 72.9212C408.387 72.9212 409.288 73.1448 410.042 73.5981C410.797 74.0514 411.396 74.6628 411.831 75.4442C412.27 76.2226 412.488 77.1232 412.488 78.1461C412.488 79.1691 412.273 80.0846 411.849 80.8839H411.852ZM264.816 78.1789L271.533 65.8651L272.063 64.8928C272.687 63.7506 271.861 62.3609 270.56 62.3609H259.851C259.225 62.3609 258.649 62.7038 258.348 63.2526L256.922 65.8621L256.863 65.9724C256.818 65.9336 256.773 65.8979 256.728 65.8651C256.681 65.8263 256.633 65.7875 256.582 65.7487C256.478 65.6652 256.371 65.5847 256.263 65.5042C256.212 65.4654 256.162 65.4267 256.111 65.3909C256.057 65.3521 256.007 65.3133 255.953 65.2775C255.55 64.9912 255.136 64.7258 254.706 64.4783C254.647 64.4425 254.584 64.4097 254.524 64.3769C254.468 64.3441 254.408 64.3113 254.349 64.2815C254.259 64.2308 254.17 64.183 254.077 64.1383C254.071 64.1383 254.068 64.1323 254.065 64.1323C253.994 64.0936 253.919 64.0578 253.848 64.022C253.791 63.9922 253.734 63.9653 253.675 63.9385C253.591 63.8997 253.511 63.858 253.427 63.8222C253.242 63.7357 253.057 63.6552 252.866 63.5776C250.967 62.7903 248.885 62.3609 246.696 62.3788C238.074 62.4414 231.039 69.4945 231 78.1133C230.967 85.1993 235.593 91.2086 241.993 93.2544C243.144 93.6212 244.352 93.8628 245.598 93.9553C245.998 93.9851 246.404 94 246.812 94C248.951 94 250.99 93.5765 252.851 92.8041C252.851 92.8041 252.854 92.8041 252.857 92.8041C254.316 92.1987 255.667 91.3845 256.866 90.3944L256.919 90.4898L258.345 93.0993C258.646 93.6481 259.222 93.9911 259.848 93.9911H270.557C271.858 93.9911 272.684 92.6013 272.06 91.4591L271.53 90.4869L264.816 78.1819V78.1789ZM261.524 65.8651H266.391C266.91 65.8651 267.241 66.4227 266.993 66.879L262.824 74.5226L260.945 71.0781L260.936 71.0602C260.895 70.9767 260.853 70.8962 260.808 70.8127L260.617 70.4608C260.549 70.3385 260.477 70.2132 260.406 70.0939C260.367 70.0283 260.328 69.9657 260.289 69.9001C260.283 69.8911 260.28 69.8852 260.274 69.8762C260.227 69.7987 260.179 69.7241 260.128 69.6466C260.003 69.4498 259.875 69.2589 259.741 69.068C259.69 68.9935 259.633 68.9189 259.582 68.8444C259.529 68.7698 259.472 68.6952 259.415 68.6207L260.626 66.3989C260.805 66.0678 261.151 65.8621 261.527 65.8621L261.524 65.8651ZM257.516 84.2568L252.511 75.0923C251.411 73.0703 249.27 71.6954 246.806 71.6954C246.762 71.6954 246.717 71.6954 246.672 71.6954C243.15 71.767 240.317 74.6449 240.317 78.1819C240.317 81.7189 243.222 84.6714 246.806 84.6714C249.046 84.6714 251.023 83.5351 252.189 81.8084L255.145 87.2272C253.108 89.1061 250.439 90.3079 247.495 90.469C247.269 90.4809 247.042 90.4869 246.812 90.4869C245.742 90.4869 244.701 90.3497 243.711 90.0902C238.42 88.7124 234.501 83.893 234.501 78.176C234.501 71.3883 240.022 65.8651 246.812 65.8651C250.021 65.8651 252.95 67.0997 255.142 69.1217C255.142 69.1217 255.142 69.1217 255.145 69.1217C256.078 69.9806 256.878 70.9827 257.51 72.0921C257.51 72.0921 257.51 72.0921 257.51 72.0951L257.552 72.1696C257.602 72.2591 257.65 72.3456 257.698 72.435L260.826 78.17V78.176L262.368 80.9972L262.821 81.8293L266.985 89.4639C267.232 89.9202 266.904 90.4779 266.382 90.4779H261.515C261.139 90.4779 260.793 90.2721 260.614 89.9441L259.409 87.7372C259.409 87.7372 259.409 87.7342 259.412 87.7312L257.513 84.2509" fill="white"/>
<g style="mix-blend-mode:lighten">
<rect x="204" y="40" width="240" height="77" fill="url(#paint6_linear_321_1457)"/>
</g>
<path d="M524 145C532.837 145 540 152.163 540 161V401C540 409.837 532.837 417 524 417H124C115.163 417 108 409.837 108 401V161C108 152.163 115.163 145 124 145H524ZM132 153C123.163 153 116 160.163 116 169V393C116 401.837 123.163 409 132 409H516C524.837 409 532 401.837 532 393V169C532 160.163 524.837 153 516 153H132Z" fill="url(#paint7_linear_321_1457)"/>
<g filter="url(#filter4_i_321_1457)">
<path d="M548 121C556.837 121 564 128.163 564 137V425C564 433.837 556.837 441 548 441H100C91.1635 441 84 433.837 84 425V137C84 128.163 91.1634 121 100 121H176V28C176 19.1634 183.163 12 192 12H456C464.837 12 472 19.1634 472 28V121H548ZM124 145C115.163 145 108 152.163 108 161V401C108 409.837 115.163 417 124 417H524C532.837 417 540 409.837 540 401V161C540 152.163 532.837 145 524 145H124ZM208 40C205.791 40 204 41.7909 204 44V113C204 115.209 205.791 117 208 117H440C442.209 117 444 115.209 444 113V44C444 41.7909 442.209 40 440 40H208Z" fill="url(#paint8_linear_321_1457)"/>
</g>
<path d="M440 40C442.209 40 444 41.7909 444 44V113C444 115.209 442.209 117 440 117H208C205.791 117 204 115.209 204 113V44C204 41.7909 205.791 40 208 40H440ZM216 48C213.791 48 212 49.7909 212 52V105C212 107.209 213.791 109 216 109H432C434.209 109 436 107.209 436 105V52C436 49.7909 434.209 48 432 48H216Z" fill="url(#paint9_linear_321_1457)"/>
<path d="M100 441H548L628 521H20L100 441Z" fill="url(#paint10_linear_321_1457)"/>
<path d="M20 521H628V549C628 551.209 626.209 553 624 553H24C21.7908 553 20 551.209 20 549V521Z" fill="url(#paint11_linear_321_1457)"/>
</g>
<defs>
<filter id="filter0_d_321_1457" x="0" y="0" width="648" height="581" filterUnits="userSpaceOnUse" color-interpolation-filters="sRGB">
<feFlood flood-opacity="0" result="BackgroundImageFix"/>
<feColorMatrix in="SourceAlpha" type="matrix" values="0 0 0 0 0 0 0 0 0 0 0 0 0 0 0 0 0 0 127 0" result="hardAlpha"/>
<feOffset dy="8"/>
<feGaussianBlur stdDeviation="10"/>
<feComposite in2="hardAlpha" operator="out"/>
<feColorMatrix type="matrix" values="0 0 0 0 0 0 0 0 0 0 0 0 0 0 0 0 0 0 0.25 0"/>
<feBlend mode="normal" in2="BackgroundImageFix" result="effect1_dropShadow_321_1457"/>
<feBlend mode="normal" in="SourceGraphic" in2="effect1_dropShadow_321_1457" result="shape"/>
</filter>
<filter id="filter1_ii_321_1457" x="164" y="214" width="320" height="132" filterUnits="userSpaceOnUse" color-interpolation-filters="sRGB">
<feFlood flood-opacity="0" result="BackgroundImageFix"/>
<feBlend mode="normal" in="SourceGraphic" in2="BackgroundImageFix" result="shape"/>
<feColorMatrix in="SourceAlpha" type="matrix" values="0 0 0 0 0 0 0 0 0 0 0 0 0 0 0 0 0 0 127 0" result="hardAlpha"/>
<feOffset dy="1"/>
<feGaussianBlur stdDeviation="4"/>
<feComposite in2="hardAlpha" operator="arithmetic" k2="-1" k3="1"/>
<feColorMatrix type="matrix" values="0 0 0 0 0.3625 0 0 0 0 0.103958 0 0 0 0 0.0317187 0 0 0 1 0"/>
<feBlend mode="normal" in2="shape" result="effect1_innerShadow_321_1457"/>
<feColorMatrix in="SourceAlpha" type="matrix" values="0 0 0 0 0 0 0 0 0 0 0 0 0 0 0 0 0 0 127 0" result="hardAlpha"/>
<feOffset dy="-3"/>
<feGaussianBlur stdDeviation="4.5"/>
<feComposite in2="hardAlpha" operator="arithmetic" k2="-1" k3="1"/>
<feColorMatrix type="matrix" values="0 0 0 0 1 0 0 0 0 1 0 0 0 0 1 0 0 0 0.67 0"/>
<feBlend mode="normal" in2="effect1_innerShadow_321_1457" result="effect2_innerShadow_321_1457"/>
</filter>
<filter id="filter2_ii_321_1457" x="140" y="173" width="368" height="214" filterUnits="userSpaceOnUse" color-interpolation-filters="sRGB">
<feFlood flood-opacity="0" result="BackgroundImageFix"/>
<feBlend mode="normal" in="SourceGraphic" in2="BackgroundImageFix" result="shape"/>
<feColorMatrix in="SourceAlpha" type="matrix" values="0 0 0 0 0 0 0 0 0 0 0 0 0 0 0 0 0 0 127 0" result="hardAlpha"/>
<feOffset dy="-4"/>
<feGaussianBlur stdDeviation="3.5"/>
<feComposite in2="hardAlpha" operator="arithmetic" k2="-1" k3="1"/>
<feColorMatrix type="matrix" values="0 0 0 0 0.329167 0 0 0 0 0.112245 0 0 0 0 0.0342882 0 0 0 0.3 0"/>
<feBlend mode="normal" in2="shape" result="effect1_innerShadow_321_1457"/>
<feColorMatrix in="SourceAlpha" type="matrix" values="0 0 0 0 0 0 0 0 0 0 0 0 0 0 0 0 0 0 127 0" result="hardAlpha"/>
<feOffset dy="2"/>
<feGaussianBlur stdDeviation="2.5"/>
<feComposite in2="hardAlpha" operator="arithmetic" k2="-1" k3="1"/>
<feColorMatrix type="matrix" values="0 0 0 0 0.433333 0 0 0 0 0.131042 0 0 0 0 0.0668055 0 0 0 1 0"/>
<feBlend mode="normal" in2="effect1_innerShadow_321_1457" result="effect2_innerShadow_321_1457"/>
</filter>
<filter id="filter3_ii_321_1457" x="84" y="119" width="480" height="324" filterUnits="userSpaceOnUse" color-interpolation-filters="sRGB">
<feFlood flood-opacity="0" result="BackgroundImageFix"/>
<feBlend mode="normal" in="SourceGraphic" in2="BackgroundImageFix" result="shape"/>
<feColorMatrix in="SourceAlpha" type="matrix" values="0 0 0 0 0 0 0 0 0 0 0 0 0 0 0 0 0 0 127 0" result="hardAlpha"/>
<feOffset dy="4"/>
<feGaussianBlur stdDeviation="1"/>
<feComposite in2="hardAlpha" operator="arithmetic" k2="-1" k3="1"/>
<feColorMatrix type="matrix" values="0 0 0 0 1 0 0 0 0 1 0 0 0 0 1 0 0 0 0.55 0"/>
<feBlend mode="normal" in2="shape" result="effect1_innerShadow_321_1457"/>
<feColorMatrix in="SourceAlpha" type="matrix" values="0 0 0 0 0 0 0 0 0 0 0 0 0 0 0 0 0 0 127 0" result="hardAlpha"/>
<feOffset dy="-4"/>
<feGaussianBlur stdDeviation="1"/>
<feComposite in2="hardAlpha" operator="arithmetic" k2="-1" k3="1"/>
<feColorMatrix type="matrix" values="0 0 0 0 0 0 0 0 0 0 0 0 0 0 0 0 0 0 0.55 0"/>
<feBlend mode="normal" in2="effect1_innerShadow_321_1457" result="effect2_innerShadow_321_1457"/>
</filter>
<filter id="filter4_i_321_1457" x="84" y="12" width="480" height="433" filterUnits="userSpaceOnUse" color-interpolation-filters="sRGB">
<feFlood flood-opacity="0" result="BackgroundImageFix"/>
<feBlend mode="normal" in="SourceGraphic" in2="BackgroundImageFix" result="shape"/>
<feColorMatrix in="SourceAlpha" type="matrix" values="0 0 0 0 0 0 0 0 0 0 0 0 0 0 0 0 0 0 127 0" result="hardAlpha"/>
<feOffset dy="4"/>
<feGaussianBlur stdDeviation="2"/>
<feComposite in2="hardAlpha" operator="arithmetic" k2="-1" k3="1"/>
<feColorMatrix type="matrix" values="0 0 0 0 0.02 0 0 0 0 0.236604 0 0 0 0 0.3 0 0 0 0.15 0"/>
<feBlend mode="normal" in2="shape" result="effect1_innerShadow_321_1457"/>
</filter>
<linearGradient id="paint0_linear_321_1457" x1="324" y1="241" x2="324" y2="322" gradientUnits="userSpaceOnUse">
<stop stop-color="#515A5A" stop-opacity="0.9"/>
<stop offset="0.0572917" stop-color="#8BA09F" stop-opacity="0.75"/>
<stop offset="0.244792" stop-color="#EAF9F8" stop-opacity="0.15"/>
<stop offset="0.479167" stop-color="#E9FFFE" stop-opacity="0"/>
<stop offset="0.708333" stop-color="#CCDFDE" stop-opacity="0.15"/>
<stop offset="0.911458" stop-color="#95A9A8" stop-opacity="0.75"/>
<stop offset="0.958333" stop-color="#778685" stop-opacity="0.9"/>
</linearGradient>
<linearGradient id="paint1_linear_321_1457" x1="464" y1="281" x2="184" y2="281" gradientUnits="userSpaceOnUse">
<stop stop-color="#626D6D"/>
<stop offset="0.03125" stop-color="#889A99" stop-opacity="0"/>
<stop offset="0.510417" stop-color="#DEFEFC" stop-opacity="0"/>
<stop offset="0.979167" stop-color="#829B9A" stop-opacity="0"/>
<stop offset="1" stop-color="#6C8482"/>
</linearGradient>
<linearGradient id="paint2_linear_321_1457" x1="324" y1="217" x2="324" y2="345" gradientUnits="userSpaceOnUse">
<stop stop-color="#732B12"/>
<stop offset="0.446944" stop-color="#BA7731"/>
<stop offset="0.802083" stop-color="#A76126"/>
<stop offset="1" stop-color="#DA9E4C"/>
</linearGradient>
<linearGradient id="paint3_linear_321_1457" x1="324" y1="177" x2="324" y2="385" gradientUnits="userSpaceOnUse">
<stop stop-color="#E9CB95"/>
<stop offset="0.446944" stop-color="#E6B75F"/>
<stop offset="0.896174" stop-color="#A76126"/>
<stop offset="1" stop-color="#B37336"/>
</linearGradient>
<linearGradient id="paint4_linear_321_1457" x1="324" y1="121" x2="324" y2="441" gradientUnits="userSpaceOnUse">
<stop stop-color="#A59F9F"/>
<stop offset="0.484375" stop-color="#161616"/>
<stop offset="1" stop-color="#3C3C3C"/>
</linearGradient>
<linearGradient id="paint5_linear_321_1457" x1="324" y1="40" x2="324" y2="117" gradientUnits="userSpaceOnUse">
<stop offset="0.104167" stop-color="#848080"/>
<stop offset="0.421875" stop-color="#1E1D1D"/>
<stop offset="0.723958" stop-color="#343434"/>
</linearGradient>
<linearGradient id="paint6_linear_321_1457" x1="324" y1="40" x2="324" y2="117" gradientUnits="userSpaceOnUse">
<stop offset="0.104167" stop-color="#848080"/>
<stop offset="0.421875" stop-color="#1E1D1D"/>
<stop offset="0.723958" stop-color="#343434"/>
</linearGradient>
<linearGradient id="paint7_linear_321_1457" x1="324" y1="145" x2="324" y2="417" gradientUnits="userSpaceOnUse">
<stop stop-color="#966A13"/>
<stop offset="1" stop-color="#CF9C5C"/>
</linearGradient>
<linearGradient id="paint8_linear_321_1457" x1="324" y1="-1" x2="324" y2="441" gradientUnits="userSpaceOnUse">
<stop offset="0.0240385" stop-color="#8D6007"/>
<stop offset="0.0480769" stop-color="#E8C88F"/>
<stop offset="0.144796" stop-color="#E8C17D"/>
<stop offset="0.274038" stop-color="#8D6007"/>
<stop offset="0.298077" stop-color="#E6B862"/>
<stop offset="0.495475" stop-color="#E8C17D"/>
<stop offset="0.866516" stop-color="#A96429"/>
<stop offset="1" stop-color="#9C5D2A"/>
</linearGradient>
<linearGradient id="paint9_linear_321_1457" x1="324" y1="40" x2="324" y2="117" gradientUnits="userSpaceOnUse">
<stop stop-color="#93670F"/>
<stop offset="0.494792" stop-color="#E6BD73"/>
<stop offset="1" stop-color="#986C15"/>
</linearGradient>
<linearGradient id="paint10_linear_321_1457" x1="324" y1="441" x2="324" y2="521" gradientUnits="userSpaceOnUse">
<stop stop-color="#76341D"/>
<stop offset="0.171875" stop-color="#B87835"/>
<stop offset="0.533654" stop-color="#C1843D"/>
<stop offset="0.947917" stop-color="#E8BE73"/>
<stop offset="1" stop-color="#FFF2DE"/>
</linearGradient>
<linearGradient id="paint11_linear_321_1457" x1="324" y1="521" x2="324" y2="553" gradientUnits="userSpaceOnUse">
<stop stop-color="#D9A85E"/>
<stop offset="1" stop-color="#7B3417"/>
</linearGradient>
</defs>
</svg>
