<svg width="608" height="541" viewBox="0 0 608 541" fill="none" xmlns="http://www.w3.org/2000/svg">
<rect x="102" y="138" width="404" height="249" fill="white"/>
<rect x="164" y="229" width="280" height="81" fill="url(#paint0_linear_69_279)"/>
<rect x="164" y="229" width="280" height="81" fill="url(#paint1_linear_69_279)"/>
<g filter="url(#filter0_ii_69_279)">
<path fill-rule="evenodd" clip-rule="evenodd" d="M464 205H144V333H464V205ZM168.87 229.615C166.66 229.615 164.87 231.406 164.87 233.615V304.385C164.87 306.594 166.66 308.385 168.87 308.385H439.13C441.34 308.385 443.13 306.594 443.13 304.385V233.615C443.13 231.406 441.34 229.615 439.13 229.615H168.87Z" fill="url(#paint2_linear_69_279)"/>
</g>
<g filter="url(#filter1_ii_69_279)">
<path fill-rule="evenodd" clip-rule="evenodd" d="M488 165H120V373H488V165ZM148 205C145.791 205 144 206.791 144 209V329C144 331.209 145.791 333 148 333H460C462.209 333 464 331.209 464 329V209C464 206.791 462.209 205 460 205H148Z" fill="url(#paint3_linear_69_279)"/>
</g>
<g filter="url(#filter2_ii_69_279)">
<path fill-rule="evenodd" clip-rule="evenodd" d="M80 109C71.1634 109 64 116.163 64 125V413C64 421.837 71.1635 429 80 429H528C536.837 429 544 421.837 544 413V125C544 116.163 536.837 109 528 109H80ZM128 165C123.582 165 120 168.582 120 173V365C120 369.418 123.582 373 128 373H480C484.418 373 488 369.418 488 365V173C488 168.582 484.418 165 480 165H128Z" fill="url(#paint4_linear_69_279)"/>
</g>
<rect x="184" y="28" width="240" height="77" fill="url(#paint5_linear_69_279)"/>
<path fill-rule="evenodd" clip-rule="evenodd" d="M104 133C95.1634 133 88 140.163 88 149V389C88 397.837 95.1634 405 104 405H504C512.837 405 520 397.837 520 389V149C520 140.163 512.837 133 504 133H104ZM112 141C103.163 141 96 148.163 96 157V381C96 389.837 103.163 397 112 397H496C504.837 397 512 389.837 512 381V157C512 148.163 504.837 141 496 141H112Z" fill="url(#paint6_linear_69_279)"/>
<g filter="url(#filter3_i_69_279)">
<path fill-rule="evenodd" clip-rule="evenodd" d="M156 16C156 7.16345 163.163 0 172 0H436C444.837 0 452 7.16344 452 16V109H528C536.837 109 544 116.163 544 125V413C544 421.837 536.837 429 528 429H80C71.1635 429 64 421.837 64 413V125C64 116.163 71.1634 109 80 109H156V16ZM184 32C184 29.7909 185.791 28 188 28H420C422.209 28 424 29.7909 424 32V101C424 103.209 422.209 105 420 105H188C185.791 105 184 103.209 184 101V32ZM88 149C88 140.163 95.1634 133 104 133H504C512.837 133 520 140.163 520 149V389C520 397.837 512.837 405 504 405H104C95.1634 405 88 397.837 88 389V149Z" fill="url(#paint7_linear_69_279)"/>
</g>
<g filter="url(#filter4_di_69_279)">
<mask id="path-9-outside-1_69_279" maskUnits="userSpaceOnUse" x="260.395" y="49" width="136" height="27" fill="black">
<rect fill="white" x="260.395" y="49" width="136" height="27"/>
<path fill-rule="evenodd" clip-rule="evenodd" d="M286.096 74.3556L279.5 57.6504H283.578L287.631 68.3704L291.631 57.6089H295.163L299.24 68.3289L303.24 57.5911H307.269L300.919 74.3556H297.747L293.406 63.2326L289.28 74.3556H286.096ZM339.943 57.5733L340.291 57.6504L340.063 57.917C339.309 58.7995 338.681 59.7806 338.198 60.8326L338.144 60.9511H337.82C336.49 61.0015 335.23 61.558 334.305 62.5044C333.38 63.4507 332.861 64.7137 332.855 66.0296V74.3259H329.198V65.763C329.229 63.4929 330.171 61.3278 331.815 59.7426C333.46 58.1574 335.673 57.2813 337.97 57.3067C338.637 57.3136 339.3 57.3931 339.949 57.5437L339.943 57.5733ZM316.935 71.1022C315.92 71.1092 314.925 70.8185 314.077 70.2667C313.229 69.7149 312.565 68.9269 312.171 68.0024C311.776 67.0778 311.667 66.0583 311.859 65.0728C312.05 64.0874 312.533 63.1802 313.247 62.466C313.96 61.7519 314.872 61.2629 315.866 61.061C316.861 60.859 317.894 60.9531 318.834 61.3314C319.775 61.7098 320.581 62.3553 321.15 63.1863C321.719 64.0173 322.026 64.9965 322.032 66C322.039 67.3439 321.506 68.6354 320.55 69.5918C319.595 70.5481 318.295 71.0913 316.935 71.1022V71.1022ZM325.666 65.7096C325.623 63.4395 324.671 61.2787 323.019 59.7012C321.367 58.1237 319.149 57.2583 316.851 57.2948C315.677 57.2678 314.51 57.4735 313.417 57.8996C312.325 58.3258 311.33 58.9637 310.491 59.776C309.652 60.5882 308.986 61.5582 308.533 62.6288C308.079 63.6994 307.847 64.8489 307.85 66.0095C307.854 67.1701 308.092 68.3184 308.551 69.3865C309.011 70.4546 309.682 71.421 310.525 72.2287C311.369 73.0364 312.367 73.669 313.462 74.0893C314.557 74.5095 315.725 74.7089 316.899 74.6756C318.798 74.6583 320.624 73.9493 322.026 72.6844V74.2963H325.69L325.666 65.7096ZM349.369 71.0963C348.354 71.1033 347.359 70.8124 346.51 70.2604C345.662 69.7083 344.999 68.92 344.604 67.9951C344.209 67.0702 344.101 66.0504 344.293 65.0648C344.485 64.0791 344.969 63.1719 345.683 62.458C346.397 61.7441 347.309 61.2556 348.304 61.0543C349.299 60.853 350.332 60.948 351.273 61.3272C352.213 61.7064 353.018 62.3528 353.587 63.1847C354.155 64.0165 354.461 64.9963 354.466 66C354.468 67.3449 353.93 68.6354 352.97 69.5886C352.01 70.5418 350.706 71.0797 349.345 71.0844L349.369 71.0963ZM358.166 50H354.502V58.96C353.376 58.161 352.074 57.6367 350.703 57.4299C349.333 57.2231 347.932 57.3397 346.616 57.7701C345.299 58.2005 344.104 58.9325 343.129 59.9064C342.154 60.8803 341.425 62.0684 341.003 63.3736C340.581 64.6789 340.477 66.0643 340.701 67.4167C340.924 68.7691 341.468 70.0501 342.288 71.1551C343.108 72.2601 344.18 73.1578 345.419 73.7748C346.657 74.3918 348.025 74.7106 349.411 74.7052C351.709 74.7289 353.922 73.8516 355.567 72.2654C357.211 70.6792 358.152 68.5136 358.184 66.243L358.166 50ZM364.942 66.0415C364.943 66.9907 365.214 67.9204 365.724 68.7246C366.234 69.5289 366.963 70.1754 367.827 70.5905C368.69 71.0056 369.655 71.1725 370.61 71.0723C371.565 70.9721 372.472 70.6088 373.229 70.0237L373.354 69.9289L374.17 69.2593L374.362 69.6919C374.645 70.5889 375.029 71.4517 375.507 72.2637L375.747 72.6726L375.339 72.9748C373.831 74.1048 371.991 74.7166 370.099 74.717C367.806 74.6644 365.624 73.7288 364.019 72.1098C362.414 70.4908 361.513 68.3163 361.506 66.0498C361.5 63.7832 362.39 61.6039 363.986 59.9763C365.582 58.3486 367.758 57.4013 370.051 57.3363C371.873 57.3305 373.652 57.8901 375.135 58.9363L375.303 59.0548L375.717 59.357L375.615 59.5289C375.12 60.3228 374.718 61.1697 374.416 62.0533L374.326 62.32L374.128 62.7822L373.307 62.1126C372.555 61.4984 371.642 61.1086 370.675 60.989C369.707 60.8694 368.725 61.0249 367.844 61.4373C366.963 61.8497 366.219 62.502 365.7 63.3174C365.18 64.1329 364.907 65.0779 364.912 66.0415H364.942ZM269.978 71.1022C268.964 71.1045 267.972 70.8098 267.127 70.2551C266.281 69.7005 265.622 68.9108 265.231 67.9858C264.839 67.0609 264.734 66.0421 264.929 65.0582C265.123 64.0742 265.608 63.1692 266.322 62.4574C267.036 61.7457 267.948 61.2591 268.942 61.059C269.936 60.859 270.968 60.9546 271.907 61.3336C272.846 61.7126 273.651 62.3582 274.219 63.1887C274.787 64.0192 275.093 64.9975 275.099 66C275.099 67.3444 274.56 68.6341 273.601 69.5869C272.641 70.5397 271.339 71.0782 269.978 71.0844V71.1022ZM278.757 65.7689C278.713 63.4993 277.76 61.3394 276.108 59.7623C274.456 58.1851 272.239 57.3192 269.942 57.3541C267.65 57.4184 265.473 58.365 263.877 59.9921C262.28 61.6192 261.39 63.7982 261.395 66.0647C261.401 68.3311 262.302 70.5059 263.906 72.1254C265.511 73.745 267.692 74.6813 269.984 74.7348C271.883 74.7214 273.709 74.0143 275.111 72.7496V74.3556H278.769L278.757 65.7689ZM386.091 71.1022C385.076 71.1069 384.082 70.8141 383.236 70.2609C382.389 69.7077 381.727 68.9188 381.334 67.9941C380.941 67.0693 380.835 66.0502 381.027 65.0655C381.22 64.0808 381.704 63.1747 382.418 62.4617C383.132 61.7488 384.044 61.261 385.038 61.06C386.033 60.859 387.065 60.9538 388.005 61.3325C388.944 61.7112 389.75 62.3567 390.318 63.1875C390.887 64.0183 391.194 64.997 391.199 66C391.201 67.3449 390.663 68.6354 389.703 69.5886C388.743 70.5418 387.439 71.0797 386.079 71.0844L386.091 71.1022ZM386.055 57.3363C384.315 57.3433 382.617 57.8599 381.174 58.8207C379.732 59.7815 378.61 61.1435 377.951 62.7343C377.291 64.3251 377.124 66.0734 377.47 67.7582C377.816 69.443 378.659 70.9886 379.894 72.1997C381.129 73.4107 382.699 74.2328 384.406 74.562C386.114 74.8912 387.881 74.7128 389.486 74.0492C391.091 73.3857 392.46 72.2668 393.422 70.8341C394.383 69.4014 394.893 67.7191 394.887 66C394.878 63.6964 393.945 61.4904 392.292 59.8654C390.64 58.2404 388.404 57.3288 386.073 57.3304L386.055 57.3363Z"/>
</mask>
<path fill-rule="evenodd" clip-rule="evenodd" d="M286.096 74.3556L279.5 57.6504H283.578L287.631 68.3704L291.631 57.6089H295.163L299.24 68.3289L303.24 57.5911H307.269L300.919 74.3556H297.747L293.406 63.2326L289.28 74.3556H286.096ZM339.943 57.5733L340.291 57.6504L340.063 57.917C339.309 58.7995 338.681 59.7806 338.198 60.8326L338.144 60.9511H337.82C336.49 61.0015 335.23 61.558 334.305 62.5044C333.38 63.4507 332.861 64.7137 332.855 66.0296V74.3259H329.198V65.763C329.229 63.4929 330.171 61.3278 331.815 59.7426C333.46 58.1574 335.673 57.2813 337.97 57.3067C338.637 57.3136 339.3 57.3931 339.949 57.5437L339.943 57.5733ZM316.935 71.1022C315.92 71.1092 314.925 70.8185 314.077 70.2667C313.229 69.7149 312.565 68.9269 312.171 68.0024C311.776 67.0778 311.667 66.0583 311.859 65.0728C312.05 64.0874 312.533 63.1802 313.247 62.466C313.96 61.7519 314.872 61.2629 315.866 61.061C316.861 60.859 317.894 60.9531 318.834 61.3314C319.775 61.7098 320.581 62.3553 321.15 63.1863C321.719 64.0173 322.026 64.9965 322.032 66C322.039 67.3439 321.506 68.6354 320.55 69.5918C319.595 70.5481 318.295 71.0913 316.935 71.1022V71.1022ZM325.666 65.7096C325.623 63.4395 324.671 61.2787 323.019 59.7012C321.367 58.1237 319.149 57.2583 316.851 57.2948C315.677 57.2678 314.51 57.4735 313.417 57.8996C312.325 58.3258 311.33 58.9637 310.491 59.776C309.652 60.5882 308.986 61.5582 308.533 62.6288C308.079 63.6994 307.847 64.8489 307.85 66.0095C307.854 67.1701 308.092 68.3184 308.551 69.3865C309.011 70.4546 309.682 71.421 310.525 72.2287C311.369 73.0364 312.367 73.669 313.462 74.0893C314.557 74.5095 315.725 74.7089 316.899 74.6756C318.798 74.6583 320.624 73.9493 322.026 72.6844V74.2963H325.69L325.666 65.7096ZM349.369 71.0963C348.354 71.1033 347.359 70.8124 346.51 70.2604C345.662 69.7083 344.999 68.92 344.604 67.9951C344.209 67.0702 344.101 66.0504 344.293 65.0648C344.485 64.0791 344.969 63.1719 345.683 62.458C346.397 61.7441 347.309 61.2556 348.304 61.0543C349.299 60.853 350.332 60.948 351.273 61.3272C352.213 61.7064 353.018 62.3528 353.587 63.1847C354.155 64.0165 354.461 64.9963 354.466 66C354.468 67.3449 353.93 68.6354 352.97 69.5886C352.01 70.5418 350.706 71.0797 349.345 71.0844L349.369 71.0963ZM358.166 50H354.502V58.96C353.376 58.161 352.074 57.6367 350.703 57.4299C349.333 57.2231 347.932 57.3397 346.616 57.7701C345.299 58.2005 344.104 58.9325 343.129 59.9064C342.154 60.8803 341.425 62.0684 341.003 63.3736C340.581 64.6789 340.477 66.0643 340.701 67.4167C340.924 68.7691 341.468 70.0501 342.288 71.1551C343.108 72.2601 344.18 73.1578 345.419 73.7748C346.657 74.3918 348.025 74.7106 349.411 74.7052C351.709 74.7289 353.922 73.8516 355.567 72.2654C357.211 70.6792 358.152 68.5136 358.184 66.243L358.166 50ZM364.942 66.0415C364.943 66.9907 365.214 67.9204 365.724 68.7246C366.234 69.5289 366.963 70.1754 367.827 70.5905C368.69 71.0056 369.655 71.1725 370.61 71.0723C371.565 70.9721 372.472 70.6088 373.229 70.0237L373.354 69.9289L374.17 69.2593L374.362 69.6919C374.645 70.5889 375.029 71.4517 375.507 72.2637L375.747 72.6726L375.339 72.9748C373.831 74.1048 371.991 74.7166 370.099 74.717C367.806 74.6644 365.624 73.7288 364.019 72.1098C362.414 70.4908 361.513 68.3163 361.506 66.0498C361.5 63.7832 362.39 61.6039 363.986 59.9763C365.582 58.3486 367.758 57.4013 370.051 57.3363C371.873 57.3305 373.652 57.8901 375.135 58.9363L375.303 59.0548L375.717 59.357L375.615 59.5289C375.12 60.3228 374.718 61.1697 374.416 62.0533L374.326 62.32L374.128 62.7822L373.307 62.1126C372.555 61.4984 371.642 61.1086 370.675 60.989C369.707 60.8694 368.725 61.0249 367.844 61.4373C366.963 61.8497 366.219 62.502 365.7 63.3174C365.18 64.1329 364.907 65.0779 364.912 66.0415H364.942ZM269.978 71.1022C268.964 71.1045 267.972 70.8098 267.127 70.2551C266.281 69.7005 265.622 68.9108 265.231 67.9858C264.839 67.0609 264.734 66.0421 264.929 65.0582C265.123 64.0742 265.608 63.1692 266.322 62.4574C267.036 61.7457 267.948 61.2591 268.942 61.059C269.936 60.859 270.968 60.9546 271.907 61.3336C272.846 61.7126 273.651 62.3582 274.219 63.1887C274.787 64.0192 275.093 64.9975 275.099 66C275.099 67.3444 274.56 68.6341 273.601 69.5869C272.641 70.5397 271.339 71.0782 269.978 71.0844V71.1022ZM278.757 65.7689C278.713 63.4993 277.76 61.3394 276.108 59.7623C274.456 58.1851 272.239 57.3192 269.942 57.3541C267.65 57.4184 265.473 58.365 263.877 59.9921C262.28 61.6192 261.39 63.7982 261.395 66.0647C261.401 68.3311 262.302 70.5059 263.906 72.1254C265.511 73.745 267.692 74.6813 269.984 74.7348C271.883 74.7214 273.709 74.0143 275.111 72.7496V74.3556H278.769L278.757 65.7689ZM386.091 71.1022C385.076 71.1069 384.082 70.8141 383.236 70.2609C382.389 69.7077 381.727 68.9188 381.334 67.9941C380.941 67.0693 380.835 66.0502 381.027 65.0655C381.22 64.0808 381.704 63.1747 382.418 62.4617C383.132 61.7488 384.044 61.261 385.038 61.06C386.033 60.859 387.065 60.9538 388.005 61.3325C388.944 61.7112 389.75 62.3567 390.318 63.1875C390.887 64.0183 391.194 64.997 391.199 66C391.201 67.3449 390.663 68.6354 389.703 69.5886C388.743 70.5418 387.439 71.0797 386.079 71.0844L386.091 71.1022ZM386.055 57.3363C384.315 57.3433 382.617 57.8599 381.174 58.8207C379.732 59.7815 378.61 61.1435 377.951 62.7343C377.291 64.3251 377.124 66.0734 377.47 67.7582C377.816 69.443 378.659 70.9886 379.894 72.1997C381.129 73.4107 382.699 74.2328 384.406 74.562C386.114 74.8912 387.881 74.7128 389.486 74.0492C391.091 73.3857 392.46 72.2668 393.422 70.8341C394.383 69.4014 394.893 67.7191 394.887 66C394.878 63.6964 393.945 61.4904 392.292 59.8654C390.64 58.2404 388.404 57.3288 386.073 57.3304L386.055 57.3363Z" fill="url(#paint8_linear_69_279)"/>
<path fill-rule="evenodd" clip-rule="evenodd" d="M286.096 74.3556L279.5 57.6504H283.578L287.631 68.3704L291.631 57.6089H295.163L299.24 68.3289L303.24 57.5911H307.269L300.919 74.3556H297.747L293.406 63.2326L289.28 74.3556H286.096ZM339.943 57.5733L340.291 57.6504L340.063 57.917C339.309 58.7995 338.681 59.7806 338.198 60.8326L338.144 60.9511H337.82C336.49 61.0015 335.23 61.558 334.305 62.5044C333.38 63.4507 332.861 64.7137 332.855 66.0296V74.3259H329.198V65.763C329.229 63.4929 330.171 61.3278 331.815 59.7426C333.46 58.1574 335.673 57.2813 337.97 57.3067C338.637 57.3136 339.3 57.3931 339.949 57.5437L339.943 57.5733ZM316.935 71.1022C315.92 71.1092 314.925 70.8185 314.077 70.2667C313.229 69.7149 312.565 68.9269 312.171 68.0024C311.776 67.0778 311.667 66.0583 311.859 65.0728C312.05 64.0874 312.533 63.1802 313.247 62.466C313.96 61.7519 314.872 61.2629 315.866 61.061C316.861 60.859 317.894 60.9531 318.834 61.3314C319.775 61.7098 320.581 62.3553 321.15 63.1863C321.719 64.0173 322.026 64.9965 322.032 66C322.039 67.3439 321.506 68.6354 320.55 69.5918C319.595 70.5481 318.295 71.0913 316.935 71.1022V71.1022ZM325.666 65.7096C325.623 63.4395 324.671 61.2787 323.019 59.7012C321.367 58.1237 319.149 57.2583 316.851 57.2948C315.677 57.2678 314.51 57.4735 313.417 57.8996C312.325 58.3258 311.33 58.9637 310.491 59.776C309.652 60.5882 308.986 61.5582 308.533 62.6288C308.079 63.6994 307.847 64.8489 307.85 66.0095C307.854 67.1701 308.092 68.3184 308.551 69.3865C309.011 70.4546 309.682 71.421 310.525 72.2287C311.369 73.0364 312.367 73.669 313.462 74.0893C314.557 74.5095 315.725 74.7089 316.899 74.6756C318.798 74.6583 320.624 73.9493 322.026 72.6844V74.2963H325.69L325.666 65.7096ZM349.369 71.0963C348.354 71.1033 347.359 70.8124 346.51 70.2604C345.662 69.7083 344.999 68.92 344.604 67.9951C344.209 67.0702 344.101 66.0504 344.293 65.0648C344.485 64.0791 344.969 63.1719 345.683 62.458C346.397 61.7441 347.309 61.2556 348.304 61.0543C349.299 60.853 350.332 60.948 351.273 61.3272C352.213 61.7064 353.018 62.3528 353.587 63.1847C354.155 64.0165 354.461 64.9963 354.466 66C354.468 67.3449 353.93 68.6354 352.97 69.5886C352.01 70.5418 350.706 71.0797 349.345 71.0844L349.369 71.0963ZM358.166 50H354.502V58.96C353.376 58.161 352.074 57.6367 350.703 57.4299C349.333 57.2231 347.932 57.3397 346.616 57.7701C345.299 58.2005 344.104 58.9325 343.129 59.9064C342.154 60.8803 341.425 62.0684 341.003 63.3736C340.581 64.6789 340.477 66.0643 340.701 67.4167C340.924 68.7691 341.468 70.0501 342.288 71.1551C343.108 72.2601 344.18 73.1578 345.419 73.7748C346.657 74.3918 348.025 74.7106 349.411 74.7052C351.709 74.7289 353.922 73.8516 355.567 72.2654C357.211 70.6792 358.152 68.5136 358.184 66.243L358.166 50ZM364.942 66.0415C364.943 66.9907 365.214 67.9204 365.724 68.7246C366.234 69.5289 366.963 70.1754 367.827 70.5905C368.69 71.0056 369.655 71.1725 370.61 71.0723C371.565 70.9721 372.472 70.6088 373.229 70.0237L373.354 69.9289L374.17 69.2593L374.362 69.6919C374.645 70.5889 375.029 71.4517 375.507 72.2637L375.747 72.6726L375.339 72.9748C373.831 74.1048 371.991 74.7166 370.099 74.717C367.806 74.6644 365.624 73.7288 364.019 72.1098C362.414 70.4908 361.513 68.3163 361.506 66.0498C361.5 63.7832 362.39 61.6039 363.986 59.9763C365.582 58.3486 367.758 57.4013 370.051 57.3363C371.873 57.3305 373.652 57.8901 375.135 58.9363L375.303 59.0548L375.717 59.357L375.615 59.5289C375.12 60.3228 374.718 61.1697 374.416 62.0533L374.326 62.32L374.128 62.7822L373.307 62.1126C372.555 61.4984 371.642 61.1086 370.675 60.989C369.707 60.8694 368.725 61.0249 367.844 61.4373C366.963 61.8497 366.219 62.502 365.7 63.3174C365.18 64.1329 364.907 65.0779 364.912 66.0415H364.942ZM269.978 71.1022C268.964 71.1045 267.972 70.8098 267.127 70.2551C266.281 69.7005 265.622 68.9108 265.231 67.9858C264.839 67.0609 264.734 66.0421 264.929 65.0582C265.123 64.0742 265.608 63.1692 266.322 62.4574C267.036 61.7457 267.948 61.2591 268.942 61.059C269.936 60.859 270.968 60.9546 271.907 61.3336C272.846 61.7126 273.651 62.3582 274.219 63.1887C274.787 64.0192 275.093 64.9975 275.099 66C275.099 67.3444 274.56 68.6341 273.601 69.5869C272.641 70.5397 271.339 71.0782 269.978 71.0844V71.1022ZM278.757 65.7689C278.713 63.4993 277.76 61.3394 276.108 59.7623C274.456 58.1851 272.239 57.3192 269.942 57.3541C267.65 57.4184 265.473 58.365 263.877 59.9921C262.28 61.6192 261.39 63.7982 261.395 66.0647C261.401 68.3311 262.302 70.5059 263.906 72.1254C265.511 73.745 267.692 74.6813 269.984 74.7348C271.883 74.7214 273.709 74.0143 275.111 72.7496V74.3556H278.769L278.757 65.7689ZM386.091 71.1022C385.076 71.1069 384.082 70.8141 383.236 70.2609C382.389 69.7077 381.727 68.9188 381.334 67.9941C380.941 67.0693 380.835 66.0502 381.027 65.0655C381.22 64.0808 381.704 63.1747 382.418 62.4617C383.132 61.7488 384.044 61.261 385.038 61.06C386.033 60.859 387.065 60.9538 388.005 61.3325C388.944 61.7112 389.75 62.3567 390.318 63.1875C390.887 64.0183 391.194 64.997 391.199 66C391.201 67.3449 390.663 68.6354 389.703 69.5886C388.743 70.5418 387.439 71.0797 386.079 71.0844L386.091 71.1022ZM386.055 57.3363C384.315 57.3433 382.617 57.8599 381.174 58.8207C379.732 59.7815 378.61 61.1435 377.951 62.7343C377.291 64.3251 377.124 66.0734 377.47 67.7582C377.816 69.443 378.659 70.9886 379.894 72.1997C381.129 73.4107 382.699 74.2328 384.406 74.562C386.114 74.8912 387.881 74.7128 389.486 74.0492C391.091 73.3857 392.46 72.2668 393.422 70.8341C394.383 69.4014 394.893 67.7191 394.887 66C394.878 63.6964 393.945 61.4904 392.292 59.8654C390.64 58.2404 388.404 57.3288 386.073 57.3304L386.055 57.3363Z" stroke="url(#paint9_linear_69_279)" stroke-width="2" stroke-linejoin="round" mask="url(#path-9-outside-1_69_279)"/>
<path d="M240.381 49.5H240.08L239.939 49.7653L238.366 52.7243C238.175 52.576 237.979 52.4332 237.779 52.2961L237.773 52.2917L237.767 52.2876C234.502 50.1886 230.611 49.2526 226.737 49.6331C222.862 50.0136 219.233 51.688 216.449 54.3814L216.448 54.3825C214.886 55.9037 213.645 57.7169 212.798 59.717C211.951 61.7171 211.515 63.864 211.515 66.0326C211.515 68.2012 211.951 70.348 212.798 72.3482C213.645 74.3483 214.886 76.1615 216.448 77.6827L216.45 77.6841C219.399 80.5327 223.289 82.232 227.404 82.4708C231.322 82.6982 235.194 81.5868 238.375 79.3323L239.903 82.2107L240.044 82.4763H240.345H255.131H255.972L255.571 81.7378L254.156 79.1304L254.151 79.1217L254.146 79.1132C254.147 79.1148 254.145 79.1111 254.139 79.1003C254.132 79.0879 254.12 79.0662 254.101 79.0322L253.969 78.789C253.854 78.5796 253.69 78.2787 253.484 77.9003L253.213 77.403C252.832 76.7033 252.351 75.8215 251.802 74.8147C250.46 72.3527 248.708 69.1434 246.995 66.0237C248.729 62.8653 250.505 59.6135 251.859 57.1305C252.553 55.8574 253.136 54.7863 253.546 54.0335L254.022 53.1576L254.148 52.9259L254.181 52.8663L254.189 52.8512L254.191 52.8474L254.191 52.8467L254.191 52.8465L254.192 52.8462L255.612 50.2393L256.015 49.5H255.173H240.381ZM242.753 54.1681H248.203L244.242 61.322C243.555 60.1424 242.945 59.061 242.421 58.1267H242.456L242.01 57.3725L241.983 57.3258C241.828 57.0629 241.665 56.7876 241.488 56.5041L242.753 54.1681ZM228.452 77.8556C225.292 77.8664 222.252 76.6763 219.959 74.5378V74.5165L219.807 74.369C218.677 73.2798 217.781 71.9788 217.168 70.5426C216.556 69.1064 216.241 67.564 216.241 66.0059C216.241 64.4479 216.556 62.9054 217.168 61.4692C217.781 60.0331 218.677 58.7321 219.806 57.6429C222.125 55.407 225.24 54.1587 228.482 54.1681L228.484 53.6681L228.485 54.1681C230.861 54.1619 233.187 54.839 235.179 56.1161C236.419 56.9858 237.424 58.1419 238.106 59.4831L238.552 59.2563L238.116 59.502C240.535 63.7887 245.52 72.8676 248.213 77.7844H242.88L242.671 77.3959L241.746 75.6778L238.94 70.4631C237.92 68.5664 236.899 66.6692 236.133 65.2451C235.75 64.533 235.431 63.9393 235.207 63.523L234.948 63.0393L234.879 62.9116L234.862 62.8795L234.86 62.8759L234.86 62.8752L234.859 62.8737L234.859 62.8732L234.858 62.8718C234.253 61.7064 233.334 60.7296 232.204 60.0486C231.075 59.3682 229.778 59.0093 228.456 59.0111C227.523 59.0023 226.597 59.1756 225.731 59.5213C224.864 59.8674 224.075 60.3796 223.409 61.0285C222.743 61.6775 222.212 62.4506 221.849 63.3034C221.486 64.1563 221.296 65.072 221.292 65.9977H221.292L221.292 66.0046C221.3 66.9276 221.493 67.8399 221.858 68.689C222.224 69.5382 222.754 70.3075 223.42 70.9531C224.086 71.5987 224.874 72.108 225.738 72.4521C226.602 72.796 227.526 72.9683 228.457 72.9593C229.586 72.9563 230.7 72.6906 231.706 72.1832C232.483 71.7918 233.179 71.265 233.763 70.6299L236.213 75.1671C234.019 76.9114 231.281 77.8633 228.455 77.8556L228.454 78.3556L228.452 77.8556Z" fill="url(#paint10_linear_69_279)" stroke="url(#paint11_linear_69_279)"/>
</g>
<path fill-rule="evenodd" clip-rule="evenodd" d="M188 28C185.791 28 184 29.7909 184 32V101C184 103.209 185.791 105 188 105H420C422.209 105 424 103.209 424 101V32C424 29.7909 422.209 28 420 28H188ZM196 36C193.791 36 192 37.7909 192 40V93C192 95.2091 193.791 97 196 97H412C414.209 97 416 95.2091 416 93V40C416 37.7909 414.209 36 412 36H196Z" fill="url(#paint12_linear_69_279)"/>
<path d="M80 429H528L608 509H0L80 429Z" fill="url(#paint13_linear_69_279)"/>
<path d="M0 509H608V537C608 539.209 606.209 541 604 541H3.99998C1.79085 541 0 539.209 0 537V509Z" fill="url(#paint14_linear_69_279)"/>
<defs>
<filter id="filter0_ii_69_279" x="144" y="202" width="320" height="132" filterUnits="userSpaceOnUse" color-interpolation-filters="sRGB">
<feFlood flood-opacity="0" result="BackgroundImageFix"/>
<feBlend mode="normal" in="SourceGraphic" in2="BackgroundImageFix" result="shape"/>
<feColorMatrix in="SourceAlpha" type="matrix" values="0 0 0 0 0 0 0 0 0 0 0 0 0 0 0 0 0 0 127 0" result="hardAlpha"/>
<feOffset dy="1"/>
<feGaussianBlur stdDeviation="4"/>
<feComposite in2="hardAlpha" operator="arithmetic" k2="-1" k3="1"/>
<feColorMatrix type="matrix" values="0 0 0 0 0.3625 0 0 0 0 0.103958 0 0 0 0 0.0317187 0 0 0 1 0"/>
<feBlend mode="normal" in2="shape" result="effect1_innerShadow_69_279"/>
<feColorMatrix in="SourceAlpha" type="matrix" values="0 0 0 0 0 0 0 0 0 0 0 0 0 0 0 0 0 0 127 0" result="hardAlpha"/>
<feOffset dy="-3"/>
<feGaussianBlur stdDeviation="4.5"/>
<feComposite in2="hardAlpha" operator="arithmetic" k2="-1" k3="1"/>
<feColorMatrix type="matrix" values="0 0 0 0 1 0 0 0 0 1 0 0 0 0 1 0 0 0 0.67 0"/>
<feBlend mode="normal" in2="effect1_innerShadow_69_279" result="effect2_innerShadow_69_279"/>
</filter>
<filter id="filter1_ii_69_279" x="120" y="161" width="368" height="214" filterUnits="userSpaceOnUse" color-interpolation-filters="sRGB">
<feFlood flood-opacity="0" result="BackgroundImageFix"/>
<feBlend mode="normal" in="SourceGraphic" in2="BackgroundImageFix" result="shape"/>
<feColorMatrix in="SourceAlpha" type="matrix" values="0 0 0 0 0 0 0 0 0 0 0 0 0 0 0 0 0 0 127 0" result="hardAlpha"/>
<feOffset dy="-4"/>
<feGaussianBlur stdDeviation="3.5"/>
<feComposite in2="hardAlpha" operator="arithmetic" k2="-1" k3="1"/>
<feColorMatrix type="matrix" values="0 0 0 0 0.329167 0 0 0 0 0.112245 0 0 0 0 0.0342882 0 0 0 0.3 0"/>
<feBlend mode="normal" in2="shape" result="effect1_innerShadow_69_279"/>
<feColorMatrix in="SourceAlpha" type="matrix" values="0 0 0 0 0 0 0 0 0 0 0 0 0 0 0 0 0 0 127 0" result="hardAlpha"/>
<feOffset dy="2"/>
<feGaussianBlur stdDeviation="2.5"/>
<feComposite in2="hardAlpha" operator="arithmetic" k2="-1" k3="1"/>
<feColorMatrix type="matrix" values="0 0 0 0 0.433333 0 0 0 0 0.131042 0 0 0 0 0.0668055 0 0 0 1 0"/>
<feBlend mode="normal" in2="effect1_innerShadow_69_279" result="effect2_innerShadow_69_279"/>
</filter>
<filter id="filter2_ii_69_279" x="64" y="107" width="480" height="324" filterUnits="userSpaceOnUse" color-interpolation-filters="sRGB">
<feFlood flood-opacity="0" result="BackgroundImageFix"/>
<feBlend mode="normal" in="SourceGraphic" in2="BackgroundImageFix" result="shape"/>
<feColorMatrix in="SourceAlpha" type="matrix" values="0 0 0 0 0 0 0 0 0 0 0 0 0 0 0 0 0 0 127 0" result="hardAlpha"/>
<feOffset dy="4"/>
<feGaussianBlur stdDeviation="1"/>
<feComposite in2="hardAlpha" operator="arithmetic" k2="-1" k3="1"/>
<feColorMatrix type="matrix" values="0 0 0 0 1 0 0 0 0 1 0 0 0 0 1 0 0 0 0.55 0"/>
<feBlend mode="normal" in2="shape" result="effect1_innerShadow_69_279"/>
<feColorMatrix in="SourceAlpha" type="matrix" values="0 0 0 0 0 0 0 0 0 0 0 0 0 0 0 0 0 0 127 0" result="hardAlpha"/>
<feOffset dy="-4"/>
<feGaussianBlur stdDeviation="1"/>
<feComposite in2="hardAlpha" operator="arithmetic" k2="-1" k3="1"/>
<feColorMatrix type="matrix" values="0 0 0 0 0 0 0 0 0 0 0 0 0 0 0 0 0 0 0.55 0"/>
<feBlend mode="normal" in2="effect1_innerShadow_69_279" result="effect2_innerShadow_69_279"/>
</filter>
<filter id="filter3_i_69_279" x="64" y="0" width="480" height="433" filterUnits="userSpaceOnUse" color-interpolation-filters="sRGB">
<feFlood flood-opacity="0" result="BackgroundImageFix"/>
<feBlend mode="normal" in="SourceGraphic" in2="BackgroundImageFix" result="shape"/>
<feColorMatrix in="SourceAlpha" type="matrix" values="0 0 0 0 0 0 0 0 0 0 0 0 0 0 0 0 0 0 127 0" result="hardAlpha"/>
<feOffset dy="4"/>
<feGaussianBlur stdDeviation="2"/>
<feComposite in2="hardAlpha" operator="arithmetic" k2="-1" k3="1"/>
<feColorMatrix type="matrix" values="0 0 0 0 0.02 0 0 0 0 0.236604 0 0 0 0 0.3 0 0 0 0.15 0"/>
<feBlend mode="normal" in2="shape" result="effect1_innerShadow_69_279"/>
</filter>
<filter id="filter4_di_69_279" x="210.015" y="49" width="186.873" height="36" filterUnits="userSpaceOnUse" color-interpolation-filters="sRGB">
<feFlood flood-opacity="0" result="BackgroundImageFix"/>
<feColorMatrix in="SourceAlpha" type="matrix" values="0 0 0 0 0 0 0 0 0 0 0 0 0 0 0 0 0 0 127 0" result="hardAlpha"/>
<feOffset dy="1"/>
<feGaussianBlur stdDeviation="0.5"/>
<feComposite in2="hardAlpha" operator="out"/>
<feColorMatrix type="matrix" values="0 0 0 0 0 0 0 0 0 0 0 0 0 0 0 0 0 0 0.25 0"/>
<feBlend mode="normal" in2="BackgroundImageFix" result="effect1_dropShadow_69_279"/>
<feBlend mode="normal" in="SourceGraphic" in2="effect1_dropShadow_69_279" result="shape"/>
<feColorMatrix in="SourceAlpha" type="matrix" values="0 0 0 0 0 0 0 0 0 0 0 0 0 0 0 0 0 0 127 0" result="hardAlpha"/>
<feOffset dy="1"/>
<feGaussianBlur stdDeviation="1"/>
<feComposite in2="hardAlpha" operator="arithmetic" k2="-1" k3="1"/>
<feColorMatrix type="matrix" values="0 0 0 0 0 0 0 0 0 0 0 0 0 0 0 0 0 0 0.25 0"/>
<feBlend mode="normal" in2="shape" result="effect2_innerShadow_69_279"/>
</filter>
<linearGradient id="paint0_linear_69_279" x1="304" y1="229" x2="304" y2="310" gradientUnits="userSpaceOnUse">
<stop stop-color="#515A5A" stop-opacity="0.9"/>
<stop offset="0.0572917" stop-color="#8BA09F" stop-opacity="0.75"/>
<stop offset="0.244792" stop-color="#EAF9F8" stop-opacity="0.15"/>
<stop offset="0.479167" stop-color="#E9FFFE" stop-opacity="0"/>
<stop offset="0.708333" stop-color="#CCDFDE" stop-opacity="0.15"/>
<stop offset="0.911458" stop-color="#95A9A8" stop-opacity="0.75"/>
<stop offset="0.958333" stop-color="#778685" stop-opacity="0.9"/>
</linearGradient>
<linearGradient id="paint1_linear_69_279" x1="444" y1="269" x2="164" y2="269" gradientUnits="userSpaceOnUse">
<stop stop-color="#626D6D"/>
<stop offset="0.03125" stop-color="#889A99" stop-opacity="0"/>
<stop offset="0.510417" stop-color="#DEFEFC" stop-opacity="0"/>
<stop offset="0.979167" stop-color="#829B9A" stop-opacity="0"/>
<stop offset="1" stop-color="#6C8482"/>
</linearGradient>
<linearGradient id="paint2_linear_69_279" x1="304" y1="205" x2="304" y2="333" gradientUnits="userSpaceOnUse">
<stop stop-color="#732B12"/>
<stop offset="0.446944" stop-color="#BA7731"/>
<stop offset="0.802083" stop-color="#A76126"/>
<stop offset="1" stop-color="#DA9E4C"/>
</linearGradient>
<linearGradient id="paint3_linear_69_279" x1="304" y1="165" x2="304" y2="373" gradientUnits="userSpaceOnUse">
<stop stop-color="#E9CB95"/>
<stop offset="0.446944" stop-color="#E6B75F"/>
<stop offset="0.896174" stop-color="#A76126"/>
<stop offset="1" stop-color="#B37336"/>
</linearGradient>
<linearGradient id="paint4_linear_69_279" x1="304" y1="109" x2="304" y2="429" gradientUnits="userSpaceOnUse">
<stop stop-color="#A59F9F"/>
<stop offset="0.484375" stop-color="#161616"/>
<stop offset="1" stop-color="#3C3C3C"/>
</linearGradient>
<linearGradient id="paint5_linear_69_279" x1="304" y1="28" x2="304" y2="105" gradientUnits="userSpaceOnUse">
<stop offset="0.104167" stop-color="#848080"/>
<stop offset="0.421875" stop-color="#1E1D1D"/>
<stop offset="0.723958" stop-color="#343434"/>
</linearGradient>
<linearGradient id="paint6_linear_69_279" x1="304" y1="133" x2="304" y2="405" gradientUnits="userSpaceOnUse">
<stop stop-color="#007A9E"/>
<stop offset="1" stop-color="#81DEFA"/>
</linearGradient>
<linearGradient id="paint7_linear_69_279" x1="304" y1="109" x2="304" y2="429" gradientUnits="userSpaceOnUse">
<stop stop-color="#20C4F4"/>
<stop offset="1" stop-color="#0695BF"/>
</linearGradient>
<linearGradient id="paint8_linear_69_279" x1="328.141" y1="50" x2="328.141" y2="74.7348" gradientUnits="userSpaceOnUse">
<stop stop-color="#E9C88D"/>
<stop offset="0.34375" stop-color="#F2DFBC"/>
<stop offset="0.598958" stop-color="#FEC96B"/>
<stop offset="0.90625" stop-color="#B9934F"/>
</linearGradient>
<linearGradient id="paint9_linear_69_279" x1="328.141" y1="50" x2="328.141" y2="74.7348" gradientUnits="userSpaceOnUse">
<stop stop-color="#E29F65"/>
<stop offset="0.385417" stop-color="#C18745"/>
<stop offset="0.6875" stop-color="#C7A346"/>
<stop offset="1" stop-color="#8C6211"/>
</linearGradient>
<linearGradient id="paint10_linear_69_279" x1="233.594" y1="50" x2="233.594" y2="81.9999" gradientUnits="userSpaceOnUse">
<stop stop-color="#D6C3A1"/>
<stop offset="0.5" stop-color="#F0BF66"/>
<stop offset="1" stop-color="#B9934F"/>
</linearGradient>
<linearGradient id="paint11_linear_69_279" x1="233.594" y1="50" x2="233.594" y2="81.9999" gradientUnits="userSpaceOnUse">
<stop stop-color="#A8763E"/>
<stop offset="0.473958" stop-color="#B79440"/>
<stop offset="1" stop-color="#8C6212"/>
</linearGradient>
<linearGradient id="paint12_linear_69_279" x1="304" y1="28" x2="304" y2="105" gradientUnits="userSpaceOnUse">
<stop stop-color="#027C9F"/>
<stop offset="0.494792" stop-color="#B8D5DD"/>
<stop offset="1" stop-color="#84CFE4"/>
</linearGradient>
<linearGradient id="paint13_linear_69_279" x1="304" y1="429" x2="304" y2="509" gradientUnits="userSpaceOnUse">
<stop stop-color="#095E77"/>
<stop offset="0.171875" stop-color="#13A2CB"/>
<stop offset="0.484375" stop-color="#20C4F4"/>
<stop offset="0.947917" stop-color="#8FE6FF"/>
<stop offset="1" stop-color="#E7F9FE"/>
</linearGradient>
<linearGradient id="paint14_linear_69_279" x1="304" y1="509" x2="304" y2="541" gradientUnits="userSpaceOnUse">
<stop stop-color="#20C4F4"/>
<stop offset="1" stop-color="#007294"/>
</linearGradient>
</defs>
</svg>
